<?xml version="1.0" encoding="UTF-8" standalone="no"?>
<!-- Created with Inkscape (http://www.inkscape.org/) -->

<svg
   xmlns:dc="http://purl.org/dc/elements/1.1/"
   xmlns:cc="http://creativecommons.org/ns#"
   xmlns:rdf="http://www.w3.org/1999/02/22-rdf-syntax-ns#"
   xmlns:svg="http://www.w3.org/2000/svg"
   xmlns="http://www.w3.org/2000/svg"
   xmlns:sodipodi="http://sodipodi.sourceforge.net/DTD/sodipodi-0.dtd"
   xmlns:inkscape="http://www.inkscape.org/namespaces/inkscape"
   sodipodi:docname="FNN_one_layer5.svg"
   inkscape:version="0.91 r13725"
   version="1.1"
   id="svg2"
   viewBox="0 0 472.97814 494.8074"
   height="139.64565mm"
   width="133.48494mm">
  <sodipodi:namedview
     fit-margin-bottom="0"
     fit-margin-right="0"
     fit-margin-left="0"
     fit-margin-top="0"
     inkscape:window-maximized="1"
     inkscape:window-y="24"
     inkscape:window-x="65"
     inkscape:window-height="1416"
     inkscape:window-width="2495"
     showgrid="false"
     inkscape:current-layer="layer1"
     inkscape:document-units="px"
     inkscape:cy="223.73096"
     inkscape:cx="201.24222"
     inkscape:zoom="1.979899"
     inkscape:pageshadow="2"
     inkscape:pageopacity="0.0"
     borderopacity="1.0"
     bordercolor="#666666"
     pagecolor="#ffffff"
     id="base" />
  <defs
     id="defs4">
    <marker
       inkscape:isstock="true"
       style="overflow:visible"
       id="marker10442"
       refX="0"
       refY="0"
       orient="auto"
       inkscape:stockid="Arrow2Mend">
      <path
         inkscape:connector-curvature="0"
         transform="scale(-0.6,-0.6)"
         d="M 8.7185878,4.0337352 -2.2072895,0.01601326 8.7185884,-4.0017078 c -1.7454984,2.3720609 -1.7354408,5.6174519 -6e-7,8.035443 z"
         style="fill:#000000;fill-opacity:1;fill-rule:evenodd;stroke:#000000;stroke-width:0.625;stroke-linejoin:round;stroke-opacity:1"
         id="path10444" />
    </marker>
    <marker
       inkscape:collect="always"
       inkscape:isstock="true"
       style="overflow:visible"
       id="marker9214"
       refX="0"
       refY="0"
       orient="auto"
       inkscape:stockid="Arrow2Mend">
      <path
         inkscape:connector-curvature="0"
         transform="scale(-0.6,-0.6)"
         d="M 8.7185878,4.0337352 -2.2072895,0.01601326 8.7185884,-4.0017078 c -1.7454984,2.3720609 -1.7354408,5.6174519 -6e-7,8.035443 z"
         style="fill:#000000;fill-opacity:1;fill-rule:evenodd;stroke:#000000;stroke-width:0.625;stroke-linejoin:round;stroke-opacity:1"
         id="path9216" />
    </marker>
    <marker
       inkscape:collect="always"
       inkscape:stockid="Arrow2Mend"
       orient="auto"
       refY="0"
       refX="0"
       id="marker8986"
       style="overflow:visible"
       inkscape:isstock="true">
      <path
         inkscape:connector-curvature="0"
         id="path8988"
         style="fill:#000000;fill-opacity:1;fill-rule:evenodd;stroke:#000000;stroke-width:0.625;stroke-linejoin:round;stroke-opacity:1"
         d="M 8.7185878,4.0337352 -2.2072895,0.01601326 8.7185884,-4.0017078 c -1.7454984,2.3720609 -1.7354408,5.6174519 -6e-7,8.035443 z"
         transform="scale(-0.6,-0.6)" />
    </marker>
    <marker
       inkscape:collect="always"
       inkscape:isstock="true"
       style="overflow:visible"
       id="marker8764"
       refX="0"
       refY="0"
       orient="auto"
       inkscape:stockid="Arrow2Mend">
      <path
         inkscape:connector-curvature="0"
         transform="scale(-0.6,-0.6)"
         d="M 8.7185878,4.0337352 -2.2072895,0.01601326 8.7185884,-4.0017078 c -1.7454984,2.3720609 -1.7354408,5.6174519 -6e-7,8.035443 z"
         style="fill:#000000;fill-opacity:1;fill-rule:evenodd;stroke:#000000;stroke-width:0.625;stroke-linejoin:round;stroke-opacity:1"
         id="path8766" />
    </marker>
    <marker
       inkscape:collect="always"
       inkscape:stockid="Arrow2Mend"
       orient="auto"
       refY="0"
       refX="0"
       id="marker8548"
       style="overflow:visible"
       inkscape:isstock="true">
      <path
         inkscape:connector-curvature="0"
         id="path8550"
         style="fill:#000000;fill-opacity:1;fill-rule:evenodd;stroke:#000000;stroke-width:0.625;stroke-linejoin:round;stroke-opacity:1"
         d="M 8.7185878,4.0337352 -2.2072895,0.01601326 8.7185884,-4.0017078 c -1.7454984,2.3720609 -1.7354408,5.6174519 -6e-7,8.035443 z"
         transform="scale(-0.6,-0.6)" />
    </marker>
    <marker
       inkscape:collect="always"
       inkscape:isstock="true"
       style="overflow:visible"
       id="marker8338"
       refX="0"
       refY="0"
       orient="auto"
       inkscape:stockid="Arrow2Mend">
      <path
         inkscape:connector-curvature="0"
         transform="scale(-0.6,-0.6)"
         d="M 8.7185878,4.0337352 -2.2072895,0.01601326 8.7185884,-4.0017078 c -1.7454984,2.3720609 -1.7354408,5.6174519 -6e-7,8.035443 z"
         style="fill:#000000;fill-opacity:1;fill-rule:evenodd;stroke:#000000;stroke-width:0.625;stroke-linejoin:round;stroke-opacity:1"
         id="path8340" />
    </marker>
    <marker
       inkscape:collect="always"
       inkscape:stockid="Arrow2Mend"
       orient="auto"
       refY="0"
       refX="0"
       id="marker8134"
       style="overflow:visible"
       inkscape:isstock="true">
      <path
         inkscape:connector-curvature="0"
         id="path8136"
         style="fill:#000000;fill-opacity:1;fill-rule:evenodd;stroke:#000000;stroke-width:0.625;stroke-linejoin:round;stroke-opacity:1"
         d="M 8.7185878,4.0337352 -2.2072895,0.01601326 8.7185884,-4.0017078 c -1.7454984,2.3720609 -1.7354408,5.6174519 -6e-7,8.035443 z"
         transform="scale(-0.6,-0.6)" />
    </marker>
    <marker
       inkscape:collect="always"
       inkscape:isstock="true"
       style="overflow:visible"
       id="marker7153"
       refX="0"
       refY="0"
       orient="auto"
       inkscape:stockid="Arrow2Mend">
      <path
         inkscape:connector-curvature="0"
         transform="scale(-0.6,-0.6)"
         d="M 8.7185878,4.0337352 -2.2072895,0.01601326 8.7185884,-4.0017078 c -1.7454984,2.3720609 -1.7354408,5.6174519 -6e-7,8.035443 z"
         style="fill:#000000;fill-opacity:1;fill-rule:evenodd;stroke:#000000;stroke-width:0.625;stroke-linejoin:round;stroke-opacity:1"
         id="path7155" />
    </marker>
    <marker
       inkscape:collect="always"
       inkscape:stockid="Arrow2Mend"
       orient="auto"
       refY="0"
       refX="0"
       id="marker6985"
       style="overflow:visible"
       inkscape:isstock="true">
      <path
         inkscape:connector-curvature="0"
         id="path6987"
         style="fill:#000000;fill-opacity:1;fill-rule:evenodd;stroke:#000000;stroke-width:0.625;stroke-linejoin:round;stroke-opacity:1"
         d="M 8.7185878,4.0337352 -2.2072895,0.01601326 8.7185884,-4.0017078 c -1.7454984,2.3720609 -1.7354408,5.6174519 -6e-7,8.035443 z"
         transform="scale(-0.6,-0.6)" />
    </marker>
    <marker
       inkscape:collect="always"
       inkscape:isstock="true"
       style="overflow:visible"
       id="marker6823"
       refX="0"
       refY="0"
       orient="auto"
       inkscape:stockid="Arrow2Mend">
      <path
         inkscape:connector-curvature="0"
         transform="scale(-0.6,-0.6)"
         d="M 8.7185878,4.0337352 -2.2072895,0.01601326 8.7185884,-4.0017078 c -1.7454984,2.3720609 -1.7354408,5.6174519 -6e-7,8.035443 z"
         style="fill:#000000;fill-opacity:1;fill-rule:evenodd;stroke:#000000;stroke-width:0.625;stroke-linejoin:round;stroke-opacity:1"
         id="path6825" />
    </marker>
    <marker
       inkscape:collect="always"
       inkscape:stockid="Arrow2Mend"
       orient="auto"
       refY="0"
       refX="0"
       id="marker6667"
       style="overflow:visible"
       inkscape:isstock="true">
      <path
         inkscape:connector-curvature="0"
         id="path6669"
         style="fill:#000000;fill-opacity:1;fill-rule:evenodd;stroke:#000000;stroke-width:0.625;stroke-linejoin:round;stroke-opacity:1"
         d="M 8.7185878,4.0337352 -2.2072895,0.01601326 8.7185884,-4.0017078 c -1.7454984,2.3720609 -1.7354408,5.6174519 -6e-7,8.035443 z"
         transform="scale(-0.6,-0.6)" />
    </marker>
    <marker
       inkscape:collect="always"
       inkscape:isstock="true"
       style="overflow:visible"
       id="marker6517"
       refX="0"
       refY="0"
       orient="auto"
       inkscape:stockid="Arrow2Mend">
      <path
         inkscape:connector-curvature="0"
         transform="scale(-0.6,-0.6)"
         d="M 8.7185878,4.0337352 -2.2072895,0.01601326 8.7185884,-4.0017078 c -1.7454984,2.3720609 -1.7354408,5.6174519 -6e-7,8.035443 z"
         style="fill:#000000;fill-opacity:1;fill-rule:evenodd;stroke:#000000;stroke-width:0.625;stroke-linejoin:round;stroke-opacity:1"
         id="path6519" />
    </marker>
    <marker
       inkscape:collect="always"
       inkscape:stockid="Arrow2Mend"
       orient="auto"
       refY="0"
       refX="0"
       id="marker6373"
       style="overflow:visible"
       inkscape:isstock="true">
      <path
         inkscape:connector-curvature="0"
         id="path6375"
         style="fill:#000000;fill-opacity:1;fill-rule:evenodd;stroke:#000000;stroke-width:0.625;stroke-linejoin:round;stroke-opacity:1"
         d="M 8.7185878,4.0337352 -2.2072895,0.01601326 8.7185884,-4.0017078 c -1.7454984,2.3720609 -1.7354408,5.6174519 -6e-7,8.035443 z"
         transform="scale(-0.6,-0.6)" />
    </marker>
    <marker
       inkscape:collect="always"
       inkscape:isstock="true"
       style="overflow:visible"
       id="marker6235"
       refX="0"
       refY="0"
       orient="auto"
       inkscape:stockid="Arrow2Mend">
      <path
         inkscape:connector-curvature="0"
         transform="scale(-0.6,-0.6)"
         d="M 8.7185878,4.0337352 -2.2072895,0.01601326 8.7185884,-4.0017078 c -1.7454984,2.3720609 -1.7354408,5.6174519 -6e-7,8.035443 z"
         style="fill:#000000;fill-opacity:1;fill-rule:evenodd;stroke:#000000;stroke-width:0.625;stroke-linejoin:round;stroke-opacity:1"
         id="path6237" />
    </marker>
    <marker
       inkscape:collect="always"
       inkscape:stockid="Arrow2Mend"
       orient="auto"
       refY="0"
       refX="0"
       id="marker6103"
       style="overflow:visible"
       inkscape:isstock="true">
      <path
         inkscape:connector-curvature="0"
         id="path6105"
         style="fill:#000000;fill-opacity:1;fill-rule:evenodd;stroke:#000000;stroke-width:0.625;stroke-linejoin:round;stroke-opacity:1"
         d="M 8.7185878,4.0337352 -2.2072895,0.01601326 8.7185884,-4.0017078 c -1.7454984,2.3720609 -1.7354408,5.6174519 -6e-7,8.035443 z"
         transform="scale(-0.6,-0.6)" />
    </marker>
    <marker
       inkscape:collect="always"
       inkscape:isstock="true"
       style="overflow:visible"
       id="marker5977"
       refX="0"
       refY="0"
       orient="auto"
       inkscape:stockid="Arrow2Mend">
      <path
         inkscape:connector-curvature="0"
         transform="scale(-0.6,-0.6)"
         d="M 8.7185878,4.0337352 -2.2072895,0.01601326 8.7185884,-4.0017078 c -1.7454984,2.3720609 -1.7354408,5.6174519 -6e-7,8.035443 z"
         style="fill:#000000;fill-opacity:1;fill-rule:evenodd;stroke:#000000;stroke-width:0.625;stroke-linejoin:round;stroke-opacity:1"
         id="path5979" />
    </marker>
    <marker
       inkscape:collect="always"
       inkscape:stockid="Arrow2Mend"
       orient="auto"
       refY="0"
       refX="0"
       id="marker5717"
       style="overflow:visible"
       inkscape:isstock="true">
      <path
         inkscape:connector-curvature="0"
         id="path5719"
         style="fill:#000000;fill-opacity:1;fill-rule:evenodd;stroke:#000000;stroke-width:0.625;stroke-linejoin:round;stroke-opacity:1"
         d="M 8.7185878,4.0337352 -2.2072895,0.01601326 8.7185884,-4.0017078 c -1.7454984,2.3720609 -1.7354408,5.6174519 -6e-7,8.035443 z"
         transform="scale(-0.6,-0.6)" />
    </marker>
    <marker
       inkscape:collect="always"
       inkscape:isstock="true"
       style="overflow:visible"
       id="marker5597"
       refX="0"
       refY="0"
       orient="auto"
       inkscape:stockid="Arrow2Mend">
      <path
         inkscape:connector-curvature="0"
         transform="scale(-0.6,-0.6)"
         d="M 8.7185878,4.0337352 -2.2072895,0.01601326 8.7185884,-4.0017078 c -1.7454984,2.3720609 -1.7354408,5.6174519 -6e-7,8.035443 z"
         style="fill:#000000;fill-opacity:1;fill-rule:evenodd;stroke:#000000;stroke-width:0.625;stroke-linejoin:round;stroke-opacity:1"
         id="path5599" />
    </marker>
    <marker
       inkscape:collect="always"
       inkscape:stockid="Arrow2Mend"
       orient="auto"
       refY="0"
       refX="0"
       id="marker5483"
       style="overflow:visible"
       inkscape:isstock="true">
      <path
         inkscape:connector-curvature="0"
         id="path5485"
         style="fill:#000000;fill-opacity:1;fill-rule:evenodd;stroke:#000000;stroke-width:0.625;stroke-linejoin:round;stroke-opacity:1"
         d="M 8.7185878,4.0337352 -2.2072895,0.01601326 8.7185884,-4.0017078 c -1.7454984,2.3720609 -1.7354408,5.6174519 -6e-7,8.035443 z"
         transform="scale(-0.6,-0.6)" />
    </marker>
    <marker
       inkscape:collect="always"
       inkscape:stockid="Arrow2Mend"
       orient="auto"
       refY="0"
       refX="0"
       id="marker5273"
       style="overflow:visible"
       inkscape:isstock="true">
      <path
         inkscape:connector-curvature="0"
         id="path5275"
         style="fill:#000000;fill-opacity:1;fill-rule:evenodd;stroke:#000000;stroke-width:0.625;stroke-linejoin:round;stroke-opacity:1"
         d="M 8.7185878,4.0337352 -2.2072895,0.01601326 8.7185884,-4.0017078 c -1.7454984,2.3720609 -1.7354408,5.6174519 -6e-7,8.035443 z"
         transform="scale(-0.6,-0.6)" />
    </marker>
    <marker
       inkscape:collect="always"
       inkscape:isstock="true"
       style="overflow:visible"
       id="marker5177"
       refX="0"
       refY="0"
       orient="auto"
       inkscape:stockid="Arrow2Mend">
      <path
         inkscape:connector-curvature="0"
         transform="scale(-0.6,-0.6)"
         d="M 8.7185878,4.0337352 -2.2072895,0.01601326 8.7185884,-4.0017078 c -1.7454984,2.3720609 -1.7354408,5.6174519 -6e-7,8.035443 z"
         style="fill:#000000;fill-opacity:1;fill-rule:evenodd;stroke:#000000;stroke-width:0.625;stroke-linejoin:round;stroke-opacity:1"
         id="path5179" />
    </marker>
    <marker
       inkscape:collect="always"
       inkscape:stockid="Arrow2Mend"
       orient="auto"
       refY="0"
       refX="0"
       id="marker5087"
       style="overflow:visible"
       inkscape:isstock="true">
      <path
         inkscape:connector-curvature="0"
         id="path5089"
         style="fill:#000000;fill-opacity:1;fill-rule:evenodd;stroke:#000000;stroke-width:0.625;stroke-linejoin:round;stroke-opacity:1"
         d="M 8.7185878,4.0337352 -2.2072895,0.01601326 8.7185884,-4.0017078 c -1.7454984,2.3720609 -1.7354408,5.6174519 -6e-7,8.035443 z"
         transform="scale(-0.6,-0.6)" />
    </marker>
    <marker
       inkscape:collect="always"
       inkscape:isstock="true"
       style="overflow:visible"
       id="marker5001"
       refX="0"
       refY="0"
       orient="auto"
       inkscape:stockid="Arrow2Mend">
      <path
         inkscape:connector-curvature="0"
         transform="scale(-0.6,-0.6)"
         d="M 8.7185878,4.0337352 -2.2072895,0.01601326 8.7185884,-4.0017078 c -1.7454984,2.3720609 -1.7354408,5.6174519 -6e-7,8.035443 z"
         style="fill:#000000;fill-opacity:1;fill-rule:evenodd;stroke:#000000;stroke-width:0.625;stroke-linejoin:round;stroke-opacity:1"
         id="path5003" />
    </marker>
    <marker
       inkscape:stockid="Arrow2Mend"
       orient="auto"
       refY="0"
       refX="0"
       id="marker5527"
       style="overflow:visible"
       inkscape:isstock="true">
      <path
         inkscape:connector-curvature="0"
         id="path5529"
         style="fill:#000000;fill-opacity:1;fill-rule:evenodd;stroke:#000000;stroke-width:0.625;stroke-linejoin:round;stroke-opacity:1"
         d="M 8.7185878,4.0337352 -2.2072895,0.01601326 8.7185884,-4.0017078 c -1.7454984,2.3720609 -1.7354408,5.6174519 -6e-7,8.035443 z"
         transform="scale(-0.6,-0.6)" />
    </marker>
    <marker
       inkscape:stockid="Arrow1Lend"
       orient="auto"
       refY="0"
       refX="0"
       id="marker4726"
       style="overflow:visible"
       inkscape:isstock="true">
      <path
         inkscape:connector-curvature="0"
         id="path4728"
         d="M 0,0 5,-5 -12.5,0 5,5 0,0 Z"
         style="fill:#000000;fill-opacity:1;fill-rule:evenodd;stroke:#000000;stroke-width:1pt;stroke-opacity:1"
         transform="matrix(-0.8,0,0,-0.8,-10,0)" />
    </marker>
    <marker
       inkscape:isstock="true"
       style="overflow:visible"
       id="marker4560"
       refX="0"
       refY="0"
       orient="auto"
       inkscape:stockid="Arrow1Lend">
      <path
         inkscape:connector-curvature="0"
         transform="matrix(-0.8,0,0,-0.8,-10,0)"
         style="fill:#000000;fill-opacity:1;fill-rule:evenodd;stroke:#000000;stroke-width:1pt;stroke-opacity:1"
         d="M 0,0 5,-5 -12.5,0 5,5 0,0 Z"
         id="path4562" />
    </marker>
    <marker
       inkscape:stockid="Arrow1Lend"
       orient="auto"
       refY="0"
       refX="0"
       id="marker4476"
       style="overflow:visible"
       inkscape:isstock="true">
      <path
         inkscape:connector-curvature="0"
         id="path4478"
         d="M 0,0 5,-5 -12.5,0 5,5 0,0 Z"
         style="fill:#000000;fill-opacity:1;fill-rule:evenodd;stroke:#000000;stroke-width:1pt;stroke-opacity:1"
         transform="matrix(-0.8,0,0,-0.8,-10,0)" />
    </marker>
  </defs>
  <metadata
     id="metadata7">
    <rdf:RDF>
      <cc:Work
         rdf:about="">
        <dc:format>image/svg+xml</dc:format>
        <dc:type
           rdf:resource="http://purl.org/dc/dcmitype/StillImage" />
        <dc:title></dc:title>
      </cc:Work>
    </rdf:RDF>
  </metadata>
  <g
     transform="translate(-72.964282,-55.392041)"
     id="layer1"
     inkscape:groupmode="layer"
     inkscape:label="Layer 1">
    <flowRoot
       style="font-style:normal;font-weight:normal;font-size:40px;line-height:125%;font-family:Sans;letter-spacing:0px;word-spacing:0px;fill:#000000;fill-opacity:1;stroke:none;stroke-width:1px;stroke-linecap:butt;stroke-linejoin:miter;stroke-opacity:1"
       id="flowRoot5234"
       xml:space="preserve"><flowRegion
         id="flowRegion5236"><rect
           y="143.22491"
           x="252.53813"
           height="75.761444"
           width="125.25892"
           id="rect5238" /></flowRegion><flowPara
         id="flowPara5240" /></flowRoot>    <flowRoot
       style="font-style:normal;font-weight:normal;font-size:40px;line-height:125%;font-family:Sans;letter-spacing:0px;word-spacing:0px;fill:#000000;fill-opacity:1;stroke:none;stroke-width:1px;stroke-linecap:butt;stroke-linejoin:miter;stroke-opacity:1"
       id="flowRoot4805"
       xml:space="preserve"><flowRegion
         id="flowRegion4807"><rect
           y="267.36221"
           x="425.71429"
           height="44.285713"
           width="50.714287"
           id="rect4809" /></flowRegion><flowPara
         id="flowPara4811">w</flowPara></flowRoot>    <flowRoot
       style="font-style:normal;font-weight:normal;font-size:40px;line-height:125%;font-family:Sans;letter-spacing:0px;word-spacing:0px;fill:#000000;fill-opacity:1;stroke:none;stroke-width:1px;stroke-linecap:butt;stroke-linejoin:miter;stroke-opacity:1"
       id="flowRoot4992"
       xml:space="preserve"><flowRegion
         id="flowRegion4994"><rect
           y="268.79077"
           x="405"
           height="51.42857"
           width="76.428574"
           id="rect4996" /></flowRegion><flowPara
         id="flowPara4998" /></flowRoot>    <text
       sodipodi:linespacing="125%"
       id="text5000"
       y="291.64792"
       x="452.14285"
       style="font-style:normal;font-weight:normal;font-size:40px;line-height:125%;font-family:Sans;letter-spacing:0px;word-spacing:0px;fill:#000000;fill-opacity:1;stroke:none;stroke-width:1px;stroke-linecap:butt;stroke-linejoin:miter;stroke-opacity:1"
       xml:space="preserve"><tspan
         y="291.64792"
         x="452.14285"
         id="tspan5002"
         sodipodi:role="line" /></text>
    <text
       sodipodi:linespacing="125%"
       id="text5004"
       y="290.21933"
       x="441.42856"
       style="font-style:normal;font-weight:normal;font-size:40px;line-height:125%;font-family:Sans;letter-spacing:0px;word-spacing:0px;fill:#000000;fill-opacity:1;stroke:none;stroke-width:1px;stroke-linecap:butt;stroke-linejoin:miter;stroke-opacity:1"
       xml:space="preserve"><tspan
         y="290.21933"
         x="441.42856"
         id="tspan5006"
         sodipodi:role="line" /></text>
    <flowRoot
       style="font-style:normal;font-weight:normal;font-size:40px;line-height:125%;font-family:Sans;letter-spacing:0px;word-spacing:0px;fill:#000000;fill-opacity:1;stroke:none;stroke-width:1px;stroke-linecap:butt;stroke-linejoin:miter;stroke-opacity:1"
       id="flowRoot5010"
       xml:space="preserve"><flowRegion
         id="flowRegion5012"><rect
           y="248.79077"
           x="427.85715"
           height="66.428574"
           width="68.571426"
           id="rect5014" /></flowRegion><flowPara
         id="flowPara5016" /></flowRoot>    <flowRoot
       style="font-style:normal;font-weight:normal;font-size:40px;line-height:125%;font-family:Sans;letter-spacing:0px;word-spacing:0px;fill:#000000;fill-opacity:1;stroke:none;stroke-width:1px;stroke-linecap:butt;stroke-linejoin:miter;stroke-opacity:1"
       id="flowRoot5028"
       xml:space="preserve"><flowRegion
         id="flowRegion5030"><rect
           y="273.79077"
           x="460"
           height="58.57143"
           width="50"
           id="rect5032" /></flowRegion><flowPara
         id="flowPara5038">Φϕ</flowPara></flowRoot>    <path
       style="fill:none;stroke:#000000;stroke-width:4.19338703;stroke-miterlimit:4;stroke-dasharray:none;stroke-opacity:1"
       d="m 130.6533,281.63611 a 27.796164,27.796164 0 0 1 -27.79616,27.79616 27.796164,27.796164 0 0 1 -27.796164,-27.79616 27.796164,27.796164 0 0 1 27.796164,-27.79617 27.796164,27.796164 0 0 1 27.79616,27.79617 z"
       id="path3336-3-36"
       inkscape:connector-curvature="0" />
    <path
       style="fill:none;stroke:#000000;stroke-width:4.19338703;stroke-miterlimit:4;stroke-dasharray:none;stroke-opacity:1"
       d="m 130.6533,212.14792 a 27.796164,27.796164 0 0 1 -27.79616,27.79616 27.796164,27.796164 0 0 1 -27.796164,-27.79616 27.796164,27.796164 0 0 1 27.796164,-27.79616 27.796164,27.796164 0 0 1 27.79616,27.79616 z"
       id="path3336-3-6-7"
       inkscape:connector-curvature="0" />
    <path
       style="fill:none;stroke:#000000;stroke-width:4.19338703;stroke-miterlimit:4;stroke-dasharray:none;stroke-opacity:1"
       d="m 130.6533,142.64792 a 27.796164,27.796164 0 0 1 -27.79616,27.79616 27.796164,27.796164 0 0 1 -27.796164,-27.79616 27.796164,27.796164 0 0 1 27.796164,-27.79616 27.796164,27.796164 0 0 1 27.79616,27.79616 z"
       id="path3336-3-7-5"
       inkscape:connector-curvature="0" />
    <path
       style="fill:none;stroke:none;stroke-width:4.19338703;stroke-miterlimit:4;stroke-dasharray:none;stroke-opacity:1"
       d="m 130.6533,351.14792 a 27.796164,27.796164 0 0 1 -27.79616,27.79616 27.796164,27.796164 0 0 1 -27.796164,-27.79616 27.796164,27.796164 0 0 1 27.796164,-27.79616 27.796164,27.796164 0 0 1 27.79616,27.79616 z"
       id="path3336-3-5-3"
       inkscape:connector-curvature="0" />
    <path
       style="fill:none;stroke:#000000;stroke-width:4.19338703;stroke-miterlimit:4;stroke-dasharray:none;stroke-opacity:1"
       d="m 130.6533,420.64792 a 27.796164,27.796164 0 0 1 -27.79616,27.79616 27.796164,27.796164 0 0 1 -27.796164,-27.79616 27.796164,27.796164 0 0 1 27.796164,-27.79616 27.796164,27.796164 0 0 1 27.79616,27.79616 z"
       id="path3336-3-3-5"
       inkscape:connector-curvature="0" />
    <path
       style="fill:none;stroke:#000000;stroke-width:1.17578948;stroke-miterlimit:4;stroke-dasharray:none;stroke-opacity:1"
       d="m 107.48422,337.19644 a 4.6270833,4.6270833 0 0 1 -4.62708,4.62708 4.6270833,4.6270833 0 0 1 -4.627084,-4.62708 4.6270833,4.6270833 0 0 1 4.627084,-4.62708 4.6270833,4.6270833 0 0 1 4.62708,4.62708 z"
       id="path3336-3-5-5-62"
       inkscape:connector-curvature="0" />
    <path
       style="fill:none;stroke:#000000;stroke-width:1.17578948;stroke-miterlimit:4;stroke-dasharray:none;stroke-opacity:1"
       d="m 107.48422,351.14792 a 4.6270833,4.6270833 0 0 1 -4.62708,4.62708 4.6270833,4.6270833 0 0 1 -4.627084,-4.62708 4.6270833,4.6270833 0 0 1 4.627084,-4.62708 4.6270833,4.6270833 0 0 1 4.62708,4.62708 z"
       id="path3336-3-5-5-6-9"
       inkscape:connector-curvature="0" />
    <path
       style="fill:none;stroke:#000000;stroke-width:1.17578948;stroke-miterlimit:4;stroke-dasharray:none;stroke-opacity:1"
       d="m 107.48422,365.50742 a 4.6270833,4.6270833 0 0 1 -4.62708,4.62708 4.6270833,4.6270833 0 0 1 -4.627084,-4.62708 4.6270833,4.6270833 0 0 1 4.627084,-4.62709 4.6270833,4.6270833 0 0 1 4.62708,4.62709 z"
       id="path3336-3-5-5-2-1"
       inkscape:connector-curvature="0" />
    <path
       style="fill:none;stroke:#000000;stroke-width:4.19338703;stroke-miterlimit:4;stroke-dasharray:none;stroke-opacity:1"
       d="m 348.01119,281.4855 a 27.796164,27.796164 0 0 1 -27.79616,27.79617 27.796164,27.796164 0 0 1 -27.79617,-27.79617 27.796164,27.796164 0 0 1 27.79617,-27.79616 27.796164,27.796164 0 0 1 27.79616,27.79616 z"
       id="path3336-3-36-2"
       inkscape:connector-curvature="0" />
    <path
       style="fill:none;stroke:#000000;stroke-width:4.19338703;stroke-miterlimit:4;stroke-dasharray:none;stroke-opacity:1"
       d="m 348.01119,201.98549 a 27.796164,27.796164 0 0 1 -27.79616,27.79616 27.796164,27.796164 0 0 1 -27.79617,-27.79616 27.796164,27.796164 0 0 1 27.79617,-27.79616 27.796164,27.796164 0 0 1 27.79616,27.79616 z"
       id="path3336-3-6-7-2"
       inkscape:connector-curvature="0" />
    <path
       style="fill:none;stroke:#000000;stroke-width:4.19338703;stroke-miterlimit:4;stroke-dasharray:none;stroke-opacity:1"
       d="m 348.01119,122.48549 a 27.796164,27.796164 0 0 1 -27.79616,27.79616 27.796164,27.796164 0 0 1 -27.79617,-27.79616 27.796164,27.796164 0 0 1 27.79617,-27.796165 27.796164,27.796164 0 0 1 27.79616,27.796165 z"
       id="path3336-3-7-5-8"
       inkscape:connector-curvature="0" />
    <path
       style="fill:none;stroke:none;stroke-width:4.19338703;stroke-miterlimit:4;stroke-dasharray:none;stroke-opacity:1"
       d="m 348.01119,360.9855 a 27.796164,27.796164 0 0 1 -27.79616,27.79617 27.796164,27.796164 0 0 1 -27.79617,-27.79617 27.796164,27.796164 0 0 1 27.79617,-27.79616 27.796164,27.796164 0 0 1 27.79616,27.79616 z"
       id="path3336-3-5-3-9"
       inkscape:connector-curvature="0" />
    <path
       style="fill:none;stroke:#000000;stroke-width:4.19338703;stroke-miterlimit:4;stroke-dasharray:none;stroke-opacity:1"
       d="m 348.01119,440.4855 a 27.796164,27.796164 0 0 1 -27.79616,27.79617 27.796164,27.796164 0 0 1 -27.79617,-27.79617 27.796164,27.796164 0 0 1 27.79617,-27.79616 27.796164,27.796164 0 0 1 27.79616,27.79616 z"
       id="path3336-3-3-5-7"
       inkscape:connector-curvature="0" />
    <path
       style="fill:none;stroke:#000000;stroke-width:1.17578948;stroke-miterlimit:4;stroke-dasharray:none;stroke-opacity:1"
       d="m 324.84211,347.03403 a 4.6270833,4.6270833 0 0 1 -4.62708,4.62708 4.6270833,4.6270833 0 0 1 -4.62709,-4.62708 4.6270833,4.6270833 0 0 1 4.62709,-4.62709 4.6270833,4.6270833 0 0 1 4.62708,4.62709 z"
       id="path3336-3-5-5-62-3"
       inkscape:connector-curvature="0" />
    <path
       style="fill:none;stroke:#000000;stroke-width:1.17578948;stroke-miterlimit:4;stroke-dasharray:none;stroke-opacity:1"
       d="m 324.84211,360.9855 a 4.6270833,4.6270833 0 0 1 -4.62708,4.62709 4.6270833,4.6270833 0 0 1 -4.62709,-4.62709 4.6270833,4.6270833 0 0 1 4.62709,-4.62708 4.6270833,4.6270833 0 0 1 4.62708,4.62708 z"
       id="path3336-3-5-5-6-9-6"
       inkscape:connector-curvature="0" />
    <path
       style="fill:none;stroke:#000000;stroke-width:1.17578948;stroke-miterlimit:4;stroke-dasharray:none;stroke-opacity:1"
       d="m 324.84211,375.345 a 4.6270833,4.6270833 0 0 1 -4.62708,4.62708 4.6270833,4.6270833 0 0 1 -4.62709,-4.62708 4.6270833,4.6270833 0 0 1 4.62709,-4.62708 4.6270833,4.6270833 0 0 1 4.62708,4.62708 z"
       id="path3336-3-5-5-2-1-1"
       inkscape:connector-curvature="0" />
    <path
       style="fill:none;fill-opacity:1;stroke:#000000;stroke-width:3.17450523;stroke-linejoin:round;stroke-miterlimit:4;stroke-dasharray:6.3490106, 3.17450529999999986;stroke-dashoffset:0;stroke-opacity:1"
       d="M 398.78342,281.18796 A 77.189423,224.20866 0 0 1 321.59399,505.39662 77.189423,224.20866 0 0 1 244.40457,281.18796 77.189423,224.20866 0 0 1 321.59399,56.979294 77.189423,224.20866 0 0 1 398.78342,281.18796 Z"
       id="path4412-5"
       inkscape:connector-curvature="0" />
    <path
       style="fill:none;stroke:#006419;stroke-width:4.19338703;stroke-miterlimit:4;stroke-dasharray:none;stroke-opacity:1"
       d="m 543.8457,242.13596 a 27.796164,27.796164 0 0 1 -27.7961,27.79616 27.796164,27.796164 0 0 1 -27.7962,-27.79616 27.796164,27.796164 0 0 1 27.7962,-27.79617 27.796164,27.796164 0 0 1 27.7961,27.79617 z"
       id="path3336-3-6-7-6"
       inkscape:connector-curvature="0" />
    <path
       style="fill:none;stroke:#006419;stroke-width:4.19338703;stroke-miterlimit:4;stroke-dasharray:none;stroke-opacity:1"
       d="m 543.8457,172.80258 a 27.796164,27.796164 0 0 1 -27.7961,27.79617 27.796164,27.796164 0 0 1 -27.7962,-27.79617 27.796164,27.796164 0 0 1 27.7962,-27.79616 27.796164,27.796164 0 0 1 27.7961,27.79616 z"
       id="path3336-3-7-5-0"
       inkscape:connector-curvature="0" />
    <path
       style="fill:none;stroke:none;stroke-width:4.19338703;stroke-miterlimit:4;stroke-dasharray:none;stroke-opacity:1"
       d="m 543.8457,311.46924 a 27.796164,27.796164 0 0 1 -27.7961,27.79616 27.796164,27.796164 0 0 1 -27.7962,-27.79616 27.796164,27.796164 0 0 1 27.7962,-27.79617 27.796164,27.796164 0 0 1 27.7961,27.79617 z"
       id="path3336-3-5-3-97"
       inkscape:connector-curvature="0" />
    <path
       style="fill:none;stroke:#006419;stroke-width:4.19338703;stroke-miterlimit:4;stroke-dasharray:none;stroke-opacity:1"
       d="m 543.8457,380.80261 a 27.796164,27.796164 0 0 1 -27.7961,27.79617 27.796164,27.796164 0 0 1 -27.7962,-27.79617 27.796164,27.796164 0 0 1 27.7962,-27.79616 27.796164,27.796164 0 0 1 27.7961,27.79616 z"
       id="path3336-3-3-5-5"
       inkscape:connector-curvature="0" />
    <path
       style="fill:none;stroke:#006419;stroke-width:1.17578948;stroke-miterlimit:4;stroke-dasharray:none;stroke-opacity:1"
       d="m 520.6766,297.35114 a 4.6270833,4.6270833 0 0 1 -4.627,4.62708 4.6270833,4.6270833 0 0 1 -4.6271,-4.62708 4.6270833,4.6270833 0 0 1 4.6271,-4.62709 4.6270833,4.6270833 0 0 1 4.627,4.62709 z"
       id="path3336-3-5-5-62-9"
       inkscape:connector-curvature="0" />
    <path
       style="fill:none;stroke:#006419;stroke-width:1.17578948;stroke-miterlimit:4;stroke-dasharray:none;stroke-opacity:1"
       d="m 520.6766,311.30261 a 4.6270833,4.6270833 0 0 1 -4.627,4.62709 4.6270833,4.6270833 0 0 1 -4.6271,-4.62709 4.6270833,4.6270833 0 0 1 4.6271,-4.62708 4.6270833,4.6270833 0 0 1 4.627,4.62708 z"
       id="path3336-3-5-5-6-9-7"
       inkscape:connector-curvature="0" />
    <path
       style="fill:none;stroke:#006419;stroke-width:1.17578948;stroke-miterlimit:4;stroke-dasharray:none;stroke-opacity:1"
       d="m 520.6766,325.66211 a 4.6270833,4.6270833 0 0 1 -4.627,4.62708 4.6270833,4.6270833 0 0 1 -4.6271,-4.62708 4.6270833,4.6270833 0 0 1 4.6271,-4.62708 4.6270833,4.6270833 0 0 1 4.627,4.62708 z"
       id="path3336-3-5-5-2-1-8"
       inkscape:connector-curvature="0" />
    <path
       id="path4993"
       d="M 130.53396,140.08058 292.5382,125.05283"
       style="fill:none;fill-rule:evenodd;stroke:#000000;stroke-width:2;stroke-linecap:butt;stroke-linejoin:miter;stroke-miterlimit:4;stroke-dasharray:none;stroke-opacity:1;marker-end:url(#marker5001)"
       inkscape:connector-curvature="0" />
    <path
       id="path5079"
       d="m 129.67164,149.96814 163.72889,44.69713"
       style="fill:none;fill-rule:evenodd;stroke:#000000;stroke-width:2;stroke-linecap:butt;stroke-linejoin:miter;stroke-miterlimit:4;stroke-dasharray:none;stroke-opacity:1;marker-end:url(#marker5087)"
       inkscape:connector-curvature="0" />
    <path
       id="path5169"
       d="M 126.28194,157.61054 296.79022,266.52289"
       style="fill:none;fill-rule:evenodd;stroke:#000000;stroke-width:2;stroke-linecap:butt;stroke-linejoin:miter;stroke-miterlimit:4;stroke-dasharray:none;stroke-opacity:1;marker-end:url(#marker5177)"
       inkscape:connector-curvature="0" />
    <path
       id="path5265"
       d="M 119.24266,165.1004 303.8295,418.03302"
       style="fill:none;fill-rule:evenodd;stroke:#000000;stroke-width:2;stroke-linecap:butt;stroke-linejoin:miter;stroke-miterlimit:4;stroke-dasharray:none;stroke-opacity:1;marker-end:url(#marker5273)"
       inkscape:connector-curvature="0" />
    <path
       id="path5475"
       d="M 128.55269,201.54823 294.51948,133.08517"
       style="fill:none;fill-rule:evenodd;stroke:#000000;stroke-width:2;stroke-linecap:butt;stroke-linejoin:miter;stroke-miterlimit:4;stroke-dasharray:none;stroke-opacity:1;marker-end:url(#marker5483)"
       inkscape:connector-curvature="0" />
    <path
       id="path5589"
       d="m 130.62265,210.84976 161.82687,-7.56611"
       style="fill:none;fill-rule:evenodd;stroke:#000000;stroke-width:2;stroke-linecap:butt;stroke-linejoin:miter;stroke-miterlimit:4;stroke-dasharray:none;stroke-opacity:1;marker-end:url(#marker5597)"
       inkscape:connector-curvature="0" />
    <path
       id="path5709"
       d="M 129.33827,220.59545 293.7339,273.03797"
       style="fill:none;fill-rule:evenodd;stroke:#000000;stroke-width:2;stroke-linecap:butt;stroke-linejoin:miter;stroke-miterlimit:4;stroke-dasharray:none;stroke-opacity:1;marker-end:url(#marker5717)"
       inkscape:connector-curvature="0" />
    <path
       id="path5969"
       d="M 122.02197,232.28085 301.05019,420.35257"
       style="fill:none;fill-rule:evenodd;stroke:#000000;stroke-width:2;stroke-linecap:butt;stroke-linejoin:miter;stroke-miterlimit:4;stroke-dasharray:none;stroke-opacity:1;marker-end:url(#marker5977)"
       inkscape:connector-curvature="0" />
    <path
       id="path6095"
       d="M 125.28374,265.21523 297.78843,138.90637"
       style="fill:none;fill-rule:evenodd;stroke:#000000;stroke-width:2;stroke-linecap:butt;stroke-linejoin:miter;stroke-miterlimit:4;stroke-dasharray:none;stroke-opacity:1;marker-end:url(#marker6103)"
       inkscape:connector-curvature="0" />
    <path
       id="path6227"
       d="M 128.95567,272.07232 294.11649,211.54927"
       style="fill:none;fill-rule:evenodd;stroke:#000000;stroke-width:2;stroke-linecap:butt;stroke-linejoin:miter;stroke-miterlimit:4;stroke-dasharray:none;stroke-opacity:1;marker-end:url(#marker6235)"
       inkscape:connector-curvature="0" />
    <path
       id="path6365"
       d="m 130.65318,281.61685 161.7658,-0.11209"
       style="fill:none;fill-rule:evenodd;stroke:#000000;stroke-width:2;stroke-linecap:butt;stroke-linejoin:miter;stroke-miterlimit:4;stroke-dasharray:none;stroke-opacity:1;marker-end:url(#marker6373)"
       inkscape:connector-curvature="0" />
    <path
       id="path6509"
       d="M 125.29856,298.03674 297.7736,424.08487"
       style="fill:none;fill-rule:evenodd;stroke:#000000;stroke-width:2;stroke-linecap:butt;stroke-linejoin:miter;stroke-miterlimit:4;stroke-dasharray:none;stroke-opacity:1;marker-end:url(#marker6517)"
       inkscape:connector-curvature="0" />
    <path
       id="path6659"
       d="m 130.53775,423.17424 161.99667,14.78494"
       style="fill:none;fill-rule:evenodd;stroke:#000000;stroke-width:2;stroke-linecap:butt;stroke-linejoin:miter;stroke-miterlimit:4;stroke-dasharray:none;stroke-opacity:1;marker-end:url(#marker6667)"
       inkscape:connector-curvature="0" />
    <path
       id="path6815"
       d="M 126.26602,405.66049 296.80615,296.47293"
       style="fill:none;fill-rule:evenodd;stroke:#000000;stroke-width:2;stroke-linecap:butt;stroke-linejoin:miter;stroke-miterlimit:4;stroke-dasharray:none;stroke-opacity:1;marker-end:url(#marker6823)"
       inkscape:connector-curvature="0" />
    <path
       id="path6977"
       d="M 122.45283,400.93462 300.61934,221.69879"
       style="fill:none;fill-rule:evenodd;stroke:#000000;stroke-width:2;stroke-linecap:butt;stroke-linejoin:miter;stroke-miterlimit:4;stroke-dasharray:none;stroke-opacity:1;marker-end:url(#marker6985)"
       inkscape:connector-curvature="0" />
    <path
       id="path7145"
       d="M 119.23102,398.18691 303.84114,144.9465"
       style="fill:none;fill-rule:evenodd;stroke:#000000;stroke-width:2;stroke-linecap:butt;stroke-linejoin:miter;stroke-miterlimit:4;stroke-dasharray:none;stroke-opacity:1;marker-end:url(#marker7153)"
       inkscape:connector-curvature="0" />
    <path
       style="fill:none;stroke:none;stroke-width:4.19338703;stroke-miterlimit:4;stroke-dasharray:none;stroke-opacity:1"
       d="m 348.01119,281.48551 a 27.796164,27.796164 0 0 1 -27.79616,27.79616 27.796164,27.796164 0 0 1 -27.79617,-27.79616 27.796164,27.796164 0 0 1 27.79617,-27.79617 27.796164,27.796164 0 0 1 27.79616,27.79617 z"
       id="path3336-3-5-3-9-2-0"
       inkscape:connector-curvature="0" />
    <path
       id="path8126"
       d="m 347.2511,128.58626 141.9097,37.17289"
       style="fill:none;fill-rule:evenodd;stroke:#000000;stroke-width:2;stroke-linecap:butt;stroke-linejoin:miter;stroke-miterlimit:4;stroke-dasharray:none;stroke-opacity:1;marker-end:url(#marker8134)"
       inkscape:connector-curvature="0" />
    <path
       id="path8330"
       d="m 344.026,136.12565 148.3599,91.42748"
       style="fill:none;fill-rule:evenodd;stroke:#000000;stroke-width:2;stroke-linecap:butt;stroke-linejoin:miter;stroke-miterlimit:4;stroke-dasharray:none;stroke-opacity:1;marker-end:url(#marker8338)"
       inkscape:connector-curvature="0" />
    <path
       id="path8540"
       d="M 337.10775,143.72826 499.3042,358.61718"
       style="fill:none;fill-rule:evenodd;stroke:#000000;stroke-width:2;stroke-linecap:butt;stroke-linejoin:miter;stroke-miterlimit:4;stroke-dasharray:none;stroke-opacity:1;marker-end:url(#marker8548)"
       inkscape:connector-curvature="0" />
    <path
       id="path8756"
       d="M 346.98462,431.55153 489.4273,388.79393"
       style="fill:none;fill-rule:evenodd;stroke:#000000;stroke-width:2;stroke-linecap:butt;stroke-linejoin:miter;stroke-miterlimit:4;stroke-dasharray:none;stroke-opacity:1;marker-end:url(#marker8764)"
       inkscape:connector-curvature="0" />
    <path
       id="path8978"
       d="M 339.93071,419.80254 496.4812,261.87627"
       style="fill:none;fill-rule:evenodd;stroke:#000000;stroke-width:2;stroke-linecap:butt;stroke-linejoin:miter;stroke-miterlimit:4;stroke-dasharray:none;stroke-opacity:1;marker-end:url(#marker8986)"
       inkscape:connector-curvature="0" />
    <path
       id="path9206"
       d="M 336.80395,417.13141 499.608,195.21402"
       style="fill:none;fill-rule:evenodd;stroke:#000000;stroke-width:2;stroke-linecap:butt;stroke-linejoin:miter;stroke-miterlimit:4;stroke-dasharray:none;stroke-opacity:1;marker-end:url(#marker9214)"
       inkscape:connector-curvature="0" />
    <g
       transform="translate(23.235596,-22.031854)"
       style="font-style:normal;font-weight:normal;font-size:40px;line-height:125%;font-family:Sans;letter-spacing:0px;word-spacing:0px;fill:#000000;fill-opacity:1;stroke:none;stroke-width:1px;stroke-linecap:butt;stroke-linejoin:miter;stroke-opacity:1"
       id="flowRoot11702">
      <path
         d="m 288.21094,543.07114 3.94531,0 0,11.95312 14.33594,0 0,-11.95312 3.94531,0 0,29.16015 -3.94531,0 0,-13.88671 -14.33594,0 0,13.88671 -3.94531,0 0,-29.16015 z"
         id="path12065"
         inkscape:connector-curvature="0" />
    </g>
  </g>
  <g
     id="g4208"
     transform="translate(-175.49452,-4.447993)">
    <g
       word-spacing="normal"
       letter-spacing="normal"
       font-size-adjust="none"
       font-stretch="normal"
       font-weight="normal"
       font-variant="normal"
       font-style="normal"
       stroke-miterlimit="10.433"
       xml:space="preserve"
       transform="matrix(0.67568305,0,0,-0.67568305,-118.24453,371.10557)"
       id="content"
       style="font-style:normal;font-variant:normal;font-weight:normal;font-stretch:normal;letter-spacing:normal;word-spacing:normal;text-anchor:start;fill:none;fill-opacity:1;fill-rule:evenodd;stroke:#000000;stroke-linecap:butt;stroke-linejoin:miter;stroke-miterlimit:10.43299961;stroke-dasharray:none;stroke-dashoffset:0;stroke-opacity:1"><path
         id="path4211"
         d="m 472.64,421.04 0.03,0.13 0.03,0.15 0.05,0.17 0.04,0.18 0.06,0.19 0.06,0.21 0.06,0.21 0.07,0.23 0.08,0.23 0.09,0.24 0.1,0.25 0.1,0.24 0.11,0.25 0.12,0.25 0.13,0.25 0.14,0.25 0.15,0.24 0.15,0.24 0.17,0.23 0.18,0.22 0.18,0.22 0.2,0.2 0.21,0.19 0.22,0.18 0.23,0.16 0.25,0.14 0.12,0.07 0.13,0.06 0.13,0.05 0.14,0.05 0.14,0.05 0.14,0.04 0.14,0.03 0.15,0.03 0.15,0.02 0.16,0.02 0.16,0.01 0.16,0 c 0.25,0 1.45,0 2.49,-0.65 -1.4,-0.25 -2.39,-1.49 -2.39,-2.68 0,-0.8 0.54,-1.75 1.89,-1.75 1.1,0 2.69,0.9 2.69,2.89 0,2.59 -2.94,3.29 -4.63,3.29 -2.89,0 -4.64,-2.64 -5.23,-3.79 -1.25,3.29 -3.94,3.79 -5.38,3.79 -5.18,0 -8.02,-6.43 -8.02,-7.67 0,-0.5 0.5,-0.5 0.6,-0.5 0.39,0 0.54,0.1 0.64,0.54 1.7,5.29 4.98,6.53 6.68,6.53 0.95,0 2.69,-0.45 2.69,-3.33 0,-1.55 -0.85,-4.89 -2.69,-11.86 -0.8,-3.09 -2.54,-5.18 -4.73,-5.18 -0.3,0 -1.45,0 -2.49,0.65 1.24,0.25 2.34,1.29 2.34,2.69 0,1.34 -1.1,1.74 -1.85,1.74 -1.49,0 -2.73,-1.3 -2.73,-2.89 0,-2.29 2.48,-3.29 4.68,-3.29 3.28,0 5.08,3.49 5.23,3.79 0.6,-1.85 2.39,-3.79 5.38,-3.79 5.13,0 7.97,6.43 7.97,7.67 0,0.5 -0.45,0.5 -0.6,0.5 -0.45,0 -0.55,-0.2 -0.65,-0.55 -1.64,-5.33 -5.03,-6.52 -6.62,-6.52 -1.95,0 -2.74,1.59 -2.74,3.29 0,1.09 0.29,2.19 0.85,4.38 z"
         inkscape:connector-curvature="0"
         style="fill:#000000;stroke-width:0" /><path
         id="path4213"
         d="m 495.68,421.18 0,0.04 0,0.04 0,0.04 0,0.04 0,0.04 0,0.04 0,0.03 0,0.04 -0.01,0.03 0,0.03 0,0.04 0,0.03 -0.01,0.02 0,0.03 0,0.03 -0.01,0.03 0,0.02 0,0.02 -0.02,0.05 -0.01,0.04 -0.01,0.04 -0.02,0.03 -0.02,0.03 -0.02,0.03 -0.03,0.03 -0.02,0.02 -0.03,0.02 -0.04,0.02 -0.03,0.01 -0.04,0.01 -0.05,0.02 -0.05,0 -0.02,0.01 -0.03,0 -0.03,0.01 -0.02,0 -0.03,0 -0.03,0 -0.04,0 -0.03,0.01 -0.03,0 -0.04,0 -0.03,0 -0.04,0 -0.04,0 -0.04,0 -0.04,0 -0.04,0 -0.05,0 -0.04,0 c -2.24,-2.19 -5.41,-2.23 -6.84,-2.23 l 0,-1.25 c 0.84,0 3.14,0 5.06,0.97 l 0,-17.78 c 0,-1.15 0,-1.61 -3.49,-1.61 l -1.33,0 0,-1.25 12.45,0 0,1.25 -1.32,0 c -3.49,0 -3.49,0.46 -3.49,1.61 z"
         inkscape:connector-curvature="0"
         style="fill:#000000;stroke-width:0" /></g>  </g>
  <g
     transform="translate(-175.87291,64.714284)"
     id="g4554">
    <g
       style="font-style:normal;font-variant:normal;font-weight:normal;font-stretch:normal;letter-spacing:normal;word-spacing:normal;text-anchor:start;fill:none;fill-opacity:1;fill-rule:evenodd;stroke:#000000;stroke-linecap:butt;stroke-linejoin:miter;stroke-miterlimit:10.43299961;stroke-dasharray:none;stroke-dashoffset:0;stroke-opacity:1"
       id="g4556"
       transform="matrix(0.67568305,0,0,-0.67568305,-118.24453,371.10557)"
       xml:space="preserve"
       stroke-miterlimit="10.433"
       font-style="normal"
       font-variant="normal"
       font-weight="normal"
       font-stretch="normal"
       font-size-adjust="none"
       letter-spacing="normal"
       word-spacing="normal"><path
         style="fill:#000000;stroke-width:0"
         inkscape:connector-curvature="0"
         d="m 472.64,421.04 0.03,0.13 0.03,0.15 0.05,0.17 0.04,0.18 0.06,0.19 0.06,0.21 0.06,0.21 0.07,0.23 0.08,0.23 0.09,0.24 0.1,0.25 0.1,0.24 0.11,0.25 0.12,0.25 0.13,0.25 0.14,0.25 0.15,0.24 0.15,0.24 0.17,0.23 0.18,0.22 0.18,0.22 0.2,0.2 0.21,0.19 0.22,0.18 0.23,0.16 0.25,0.14 0.12,0.07 0.13,0.06 0.13,0.05 0.14,0.05 0.14,0.05 0.14,0.04 0.14,0.03 0.15,0.03 0.15,0.02 0.16,0.02 0.16,0.01 0.16,0 c 0.25,0 1.45,0 2.49,-0.65 -1.4,-0.25 -2.39,-1.49 -2.39,-2.68 0,-0.8 0.54,-1.75 1.89,-1.75 1.1,0 2.69,0.9 2.69,2.89 0,2.59 -2.94,3.29 -4.63,3.29 -2.89,0 -4.64,-2.64 -5.23,-3.79 -1.25,3.29 -3.94,3.79 -5.38,3.79 -5.18,0 -8.02,-6.43 -8.02,-7.67 0,-0.5 0.5,-0.5 0.6,-0.5 0.39,0 0.54,0.1 0.64,0.54 1.7,5.29 4.98,6.53 6.68,6.53 0.95,0 2.69,-0.45 2.69,-3.33 0,-1.55 -0.85,-4.89 -2.69,-11.86 -0.8,-3.09 -2.54,-5.18 -4.73,-5.18 -0.3,0 -1.45,0 -2.49,0.65 1.24,0.25 2.34,1.29 2.34,2.69 0,1.34 -1.1,1.74 -1.85,1.74 -1.49,0 -2.73,-1.3 -2.73,-2.89 0,-2.29 2.48,-3.29 4.68,-3.29 3.28,0 5.08,3.49 5.23,3.79 0.6,-1.85 2.39,-3.79 5.38,-3.79 5.13,0 7.97,6.43 7.97,7.67 0,0.5 -0.45,0.5 -0.6,0.5 -0.45,0 -0.55,-0.2 -0.65,-0.55 -1.64,-5.33 -5.03,-6.52 -6.62,-6.52 -1.95,0 -2.74,1.59 -2.74,3.29 0,1.09 0.29,2.19 0.85,4.38 z"
         id="path4558" /><path
         style="fill:#000000;stroke-width:0"
         inkscape:connector-curvature="0"
         d="m 501.61,405.35 -1.19,0 c -0.1,-0.77 -0.45,-2.83 -0.9,-3.18 -0.28,-0.21 -2.97,-0.21 -3.45,-0.21 l -6.42,0 c 3.66,3.25 4.88,4.22 6.97,5.86 2.58,2.06 4.99,4.22 4.99,7.54 0,4.21 -3.7,6.79 -8.16,6.79 -4.33,0 -7.25,-3.03 -7.25,-6.24 0,-1.78 1.5,-1.95 1.84,-1.95 0.84,0 1.85,0.59 1.85,1.85 0,0.62 -0.24,1.85 -2.05,1.85 1.08,2.47 3.45,3.24 5.09,3.24 3.48,0 5.3,-2.72 5.3,-5.54 0,-3.04 -2.16,-5.45 -3.28,-6.7 l -8.4,-8.3 c -0.35,-0.31 -0.35,-0.38 -0.35,-1.36 l 14.36,0 z"
         id="path4560" /></g>  </g>
  <g
     id="g4906"
     transform="translate(-175.97764,134.3037)">
    <g
       word-spacing="normal"
       letter-spacing="normal"
       font-size-adjust="none"
       font-stretch="normal"
       font-weight="normal"
       font-variant="normal"
       font-style="normal"
       stroke-miterlimit="10.433"
       xml:space="preserve"
       transform="matrix(0.67568305,0,0,-0.67568305,-118.24453,371.10557)"
       id="g4908"
       style="font-style:normal;font-variant:normal;font-weight:normal;font-stretch:normal;letter-spacing:normal;word-spacing:normal;text-anchor:start;fill:none;fill-opacity:1;fill-rule:evenodd;stroke:#000000;stroke-linecap:butt;stroke-linejoin:miter;stroke-miterlimit:10.43299961;stroke-dasharray:none;stroke-dashoffset:0;stroke-opacity:1"><path
         id="path4910"
         d="m 472.64,421.04 0.03,0.13 0.03,0.15 0.05,0.17 0.04,0.18 0.06,0.19 0.06,0.21 0.06,0.21 0.07,0.23 0.08,0.23 0.09,0.24 0.1,0.25 0.1,0.24 0.11,0.25 0.12,0.25 0.13,0.25 0.14,0.25 0.15,0.24 0.15,0.24 0.17,0.23 0.18,0.22 0.18,0.22 0.2,0.2 0.21,0.19 0.22,0.18 0.23,0.16 0.25,0.14 0.12,0.07 0.13,0.06 0.13,0.05 0.14,0.05 0.14,0.05 0.14,0.04 0.14,0.03 0.15,0.03 0.15,0.02 0.16,0.02 0.16,0.01 0.16,0 c 0.25,0 1.45,0 2.49,-0.65 -1.4,-0.25 -2.39,-1.49 -2.39,-2.68 0,-0.8 0.54,-1.75 1.89,-1.75 1.1,0 2.69,0.9 2.69,2.89 0,2.59 -2.94,3.29 -4.63,3.29 -2.89,0 -4.64,-2.64 -5.23,-3.79 -1.25,3.29 -3.94,3.79 -5.38,3.79 -5.18,0 -8.02,-6.43 -8.02,-7.67 0,-0.5 0.5,-0.5 0.6,-0.5 0.39,0 0.54,0.1 0.64,0.54 1.7,5.29 4.98,6.53 6.68,6.53 0.95,0 2.69,-0.45 2.69,-3.33 0,-1.55 -0.85,-4.89 -2.69,-11.86 -0.8,-3.09 -2.54,-5.18 -4.73,-5.18 -0.3,0 -1.45,0 -2.49,0.65 1.24,0.25 2.34,1.29 2.34,2.69 0,1.34 -1.1,1.74 -1.85,1.74 -1.49,0 -2.73,-1.3 -2.73,-2.89 0,-2.29 2.48,-3.29 4.68,-3.29 3.28,0 5.08,3.49 5.23,3.79 0.6,-1.85 2.39,-3.79 5.38,-3.79 5.13,0 7.97,6.43 7.97,7.67 0,0.5 -0.45,0.5 -0.6,0.5 -0.45,0 -0.55,-0.2 -0.65,-0.55 -1.64,-5.33 -5.03,-6.52 -6.62,-6.52 -1.95,0 -2.74,1.59 -2.74,3.29 0,1.09 0.29,2.19 0.85,4.38 z"
         inkscape:connector-curvature="0"
         style="fill:#000000;stroke-width:0" /><path
         id="path4912"
         d="m 493.52,410.64 0.25,0 0.25,-0.02 0.24,-0.02 0.24,-0.04 0.23,-0.05 0.23,-0.06 0.22,-0.07 0.22,-0.09 0.21,-0.09 0.2,-0.11 0.19,-0.11 0.19,-0.13 0.18,-0.13 0.18,-0.15 0.17,-0.16 0.15,-0.17 0.16,-0.18 0.14,-0.2 0.13,-0.2 0.13,-0.21 0.12,-0.23 0.11,-0.23 0.09,-0.25 0.09,-0.26 0.08,-0.27 0.07,-0.28 0.06,-0.29 0.05,-0.3 0.04,-0.31 0.03,-0.32 0.02,-0.33 0,-0.35 c 0,-4.32 -2.51,-5.61 -4.53,-5.61 -1.39,0 -4.46,0.38 -5.93,2.44 1.64,0.07 2.02,1.22 2.02,1.95 0,1.12 -0.83,1.92 -1.91,1.92 -0.98,0 -1.96,-0.59 -1.96,-2.02 0,-3.28 3.63,-5.41 7.85,-5.41 4.84,0 8.19,3.25 8.19,6.73 0,2.72 -2.23,5.44 -6.06,6.24 3.66,1.33 4.98,3.94 4.98,6.07 0,2.76 -3.17,4.81 -7.04,4.81 -3.87,0 -6.84,-1.88 -6.84,-4.67 0,-1.18 0.77,-1.85 1.82,-1.85 1.08,0 1.77,0.8 1.77,1.78 0,1.01 -0.69,1.75 -1.77,1.81 1.22,1.54 3.62,1.92 4.92,1.92 1.56,0 3.76,-0.76 3.76,-3.8 0,-1.46 -0.49,-3.07 -1.39,-4.15 -1.16,-1.32 -2.13,-1.39 -3.87,-1.5 -0.88,-0.07 -0.95,-0.07 -1.12,-0.1 -0.07,0 -0.35,-0.07 -0.35,-0.46 0,-0.49 0.31,-0.49 0.91,-0.49 z"
         inkscape:connector-curvature="0"
         style="fill:#000000;stroke-width:0" /></g>  </g>
  <g
     transform="translate(-183.42704,271.67699)"
     id="g5266">
    <g
       style="font-style:normal;font-variant:normal;font-weight:normal;font-stretch:normal;letter-spacing:normal;word-spacing:normal;text-anchor:start;fill:none;fill-opacity:1;fill-rule:evenodd;stroke:#000000;stroke-linecap:butt;stroke-linejoin:miter;stroke-miterlimit:10.43299961;stroke-dasharray:none;stroke-dashoffset:0;stroke-opacity:1"
       id="g5268"
       transform="matrix(0.67568305,0,0,-0.67568305,-118.24453,371.10557)"
       xml:space="preserve"
       stroke-miterlimit="10.433"
       font-style="normal"
       font-variant="normal"
       font-weight="normal"
       font-stretch="normal"
       font-size-adjust="none"
       letter-spacing="normal"
       word-spacing="normal"><path
         style="fill:#000000;stroke-width:0"
         inkscape:connector-curvature="0"
         d="m 472.64,421.04 0.03,0.13 0.03,0.15 0.05,0.17 0.04,0.18 0.06,0.19 0.06,0.21 0.06,0.21 0.07,0.23 0.08,0.23 0.09,0.24 0.1,0.25 0.1,0.24 0.11,0.25 0.12,0.25 0.13,0.25 0.14,0.25 0.15,0.24 0.15,0.24 0.17,0.23 0.18,0.22 0.18,0.22 0.2,0.2 0.21,0.19 0.22,0.18 0.23,0.16 0.25,0.14 0.12,0.07 0.13,0.06 0.13,0.05 0.14,0.05 0.14,0.05 0.14,0.04 0.14,0.03 0.15,0.03 0.15,0.02 0.16,0.02 0.16,0.01 0.16,0 c 0.25,0 1.45,0 2.49,-0.65 -1.4,-0.25 -2.39,-1.49 -2.39,-2.68 0,-0.8 0.54,-1.75 1.89,-1.75 1.1,0 2.69,0.9 2.69,2.89 0,2.59 -2.94,3.29 -4.63,3.29 -2.89,0 -4.64,-2.64 -5.23,-3.79 -1.25,3.29 -3.94,3.79 -5.38,3.79 -5.18,0 -8.02,-6.43 -8.02,-7.67 0,-0.5 0.5,-0.5 0.6,-0.5 0.39,0 0.54,0.1 0.64,0.54 1.7,5.29 4.98,6.53 6.68,6.53 0.95,0 2.69,-0.45 2.69,-3.33 0,-1.55 -0.85,-4.89 -2.69,-11.86 -0.8,-3.09 -2.54,-5.18 -4.73,-5.18 -0.3,0 -1.45,0 -2.49,0.65 1.24,0.25 2.34,1.29 2.34,2.69 0,1.34 -1.1,1.74 -1.85,1.74 -1.49,0 -2.73,-1.3 -2.73,-2.89 0,-2.29 2.48,-3.29 4.68,-3.29 3.28,0 5.08,3.49 5.23,3.79 0.6,-1.85 2.39,-3.79 5.38,-3.79 5.13,0 7.97,6.43 7.97,7.67 0,0.5 -0.45,0.5 -0.6,0.5 -0.45,0 -0.55,-0.2 -0.65,-0.55 -1.64,-5.33 -5.03,-6.52 -6.62,-6.52 -1.95,0 -2.74,1.59 -2.74,3.29 0,1.09 0.29,2.19 0.85,4.38 z"
         id="path5270" /><path
         style="fill:#000000;stroke-width:0"
         inkscape:connector-curvature="0"
         d="m 488.25,401.2 -0.01,-0.05 -0.01,-0.04 -0.02,-0.05 -0.01,-0.05 -0.02,-0.05 -0.01,-0.06 -0.02,-0.05 -0.01,-0.05 -0.03,-0.12 -0.03,-0.11 -0.03,-0.11 -0.02,-0.11 -0.02,-0.05 -0.01,-0.06 -0.01,-0.05 -0.01,-0.05 -0.01,-0.04 -0.01,-0.05 -0.01,-0.04 -0.01,-0.04 -0.01,-0.04 0,-0.03 -0.01,-0.03 0,-0.03 -0.01,-0.03 0,-0.02 0,0 0,-0.01 0,-0.01 0,0 c 0,-0.77 0.62,-1.12 1.18,-1.12 0.63,0 1.19,0.46 1.36,0.77 0.17,0.31 0.45,1.43 0.63,2.16 0.17,0.66 0.56,2.27 0.76,3.14 0.21,0.76 0.43,1.53 0.6,2.33 0.38,1.43 0.45,1.71 1.46,3.14 0.98,1.4 2.62,3.21 5.23,3.21 2.03,0 2.06,-1.78 2.06,-2.44 0,-2.09 -1.5,-5.96 -2.06,-7.43 -0.38,-0.97 -0.52,-1.29 -0.52,-1.88 0,-1.85 1.53,-3 3.31,-3 3.49,0 5.03,4.81 5.03,5.33 0,0.46 -0.46,0.46 -0.56,0.46 -0.49,0 -0.53,-0.21 -0.67,-0.59 -0.8,-2.79 -2.3,-4.22 -3.69,-4.22 -0.73,0 -0.87,0.49 -0.87,1.22 0,0.8 0.17,1.25 0.8,2.82 0.42,1.08 1.84,4.78 1.84,6.73 0,3.39 -2.68,3.98 -4.53,3.98 -2.89,0 -4.84,-1.78 -5.89,-3.18 -0.24,2.41 -2.3,3.18 -3.73,3.18 -1.5,0 -2.3,-1.08 -2.76,-1.88 -0.76,-1.3 -1.25,-3.29 -1.25,-3.46 0,-0.45 0.49,-0.45 0.59,-0.45 0.49,0 0.52,0.11 0.77,1.05 0.52,2.05 1.18,3.76 2.54,3.76 0.91,0 1.16,-0.77 1.16,-1.71 0,-0.66 -0.32,-1.95 -0.56,-2.89 -0.25,-0.94 -0.6,-2.37 -0.77,-3.14 z"
         id="path5272" /><path
         style="fill:#000000;stroke-width:0"
         inkscape:connector-curvature="0"
         d="m 523.97,401.97 0,0.18 0,0.21 -0.01,0.24 0,0.25 -0.02,0.28 -0.01,0.3 -0.03,0.31 -0.03,0.33 -0.05,0.34 -0.05,0.35 -0.07,0.36 -0.07,0.36 -0.1,0.37 -0.11,0.37 -0.12,0.37 -0.14,0.36 -0.17,0.36 -0.18,0.35 -0.2,0.34 -0.23,0.33 -0.25,0.32 -0.27,0.3 -0.15,0.14 -0.15,0.14 -0.17,0.13 -0.16,0.13 -0.18,0.12 -0.18,0.12 -0.19,0.11 -0.2,0.1 -0.2,0.1 -0.22,0.09 -0.22,0.08 -0.23,0.08 -0.23,0.07 -0.25,0.06 -0.25,0.05 -0.27,0.04 -0.27,0.03 -0.28,0.03 -0.29,0.01 -0.3,0.01 0,-0.82 c 1.84,0 3.16,-0.95 3.66,-2.7 0.35,-1.27 0.35,-3.33 0.35,-4.8 0,-1.7 0,-3.71 -0.38,-5.21 -0.64,-2.41 -2.63,-2.79 -3.63,-2.79 l 0,0 c -0.92,0 -3.02,0.33 -3.64,2.84 -0.35,1.35 -0.37,3.12 -0.37,5.16 0,1.84 0,3.56 0.39,4.98 0.63,2.09 2.55,2.52 3.62,2.52 l 0,0.82 c -6.5,0 -6.5,-6.83 -6.5,-8.62 0,-1.82 0,-8.52 6.5,-8.52 6.5,0 6.5,6.7 6.5,8.52 z"
         id="path5274" /></g>  </g>
  <g
     id="g5638"
     transform="translate(33.890303,295.9403)">
    <g
       word-spacing="normal"
       letter-spacing="normal"
       font-size-adjust="none"
       font-stretch="normal"
       font-weight="normal"
       font-variant="normal"
       font-style="normal"
       stroke-miterlimit="10.433"
       xml:space="preserve"
       transform="matrix(0.67568305,0,0,-0.67568305,-118.24453,371.10557)"
       id="g5640"
       style="font-style:normal;font-variant:normal;font-weight:normal;font-stretch:normal;letter-spacing:normal;word-spacing:normal;text-anchor:start;fill:none;fill-opacity:1;fill-rule:evenodd;stroke:#000000;stroke-linecap:butt;stroke-linejoin:miter;stroke-miterlimit:10.43299961;stroke-dasharray:none;stroke-dashoffset:0;stroke-opacity:1"><path
         id="path5642"
         d="m 470.3,440.02 0,0.01 0,0 0,0.01 0,0.01 0,0.01 -0.01,0.01 0,0.02 0,0.02 0,0.02 -0.01,0.02 0,0.02 -0.01,0.02 -0.01,0.03 -0.01,0.02 -0.01,0.03 -0.01,0.02 -0.01,0.02 -0.02,0.03 -0.02,0.02 -0.02,0.03 -0.02,0.02 -0.01,0.01 -0.02,0.01 -0.01,0.01 -0.01,0.01 -0.02,0.01 -0.01,0.01 -0.02,0.01 -0.02,0.01 -0.01,0.01 -0.02,0.01 -0.02,0.01 -0.02,0 -0.02,0.01 -0.02,0.01 -0.02,0 -0.03,0.01 -0.02,0 -0.03,0.01 -0.02,0 -0.03,0 -0.02,0.01 -0.03,0 -0.03,0 -0.03,0 c -1.15,0 -4.78,-0.4 -6.08,-0.5 -0.4,-0.05 -0.95,-0.1 -0.95,-1 0,-0.59 0.45,-0.59 1.2,-0.59 2.39,0 2.49,-0.35 2.49,-0.85 l -0.15,-0.99 -7.22,-28.7 c -0.2,-0.69 -0.2,-0.8 -0.2,-1.09 0,-1.15 0.99,-1.4 1.44,-1.4 0.8,0 1.6,0.6 1.85,1.3 l 0.94,3.78 1.1,4.49 c 0.3,1.09 0.6,2.19 0.85,3.34 0.1,0.29 0.49,1.94 0.54,2.23 0.15,0.45 1.7,3.24 3.39,4.59 1.1,0.8 2.64,1.74 4.78,1.74 2.15,0 2.69,-1.69 2.69,-3.49 0,-2.68 -1.89,-8.11 -3.09,-11.15 -0.39,-1.15 -0.64,-1.75 -0.64,-2.74 0,-2.34 1.74,-4.09 4.08,-4.09 4.69,0 6.53,7.28 6.53,7.67 0,0.5 -0.45,0.5 -0.6,0.5 -0.5,0 -0.5,-0.15 -0.75,-0.89 -0.74,-2.64 -2.34,-6.18 -5.08,-6.18 -0.84,0 -1.19,0.5 -1.19,1.64 0,1.25 0.44,2.44 0.89,3.54 0.8,2.14 3.04,8.07 3.04,10.96 0,3.24 -1.99,5.33 -5.72,5.33 -3.15,0 -5.54,-1.55 -7.38,-3.84 z"
         inkscape:connector-curvature="0"
         style="fill:#000000;stroke-width:0" /><path
         id="path5644"
         d="m 488.25,401.2 -0.01,-0.05 -0.01,-0.04 -0.02,-0.05 -0.01,-0.05 -0.02,-0.05 -0.01,-0.06 -0.02,-0.05 -0.01,-0.05 -0.03,-0.12 -0.03,-0.11 -0.03,-0.11 -0.02,-0.11 -0.02,-0.05 -0.01,-0.06 -0.01,-0.05 -0.01,-0.05 -0.01,-0.04 -0.01,-0.05 -0.01,-0.04 -0.01,-0.04 -0.01,-0.04 0,-0.03 -0.01,-0.03 0,-0.03 -0.01,-0.03 0,-0.02 0,0 0,-0.01 0,-0.01 0,0 c 0,-0.77 0.62,-1.12 1.18,-1.12 0.63,0 1.19,0.46 1.36,0.77 0.17,0.31 0.45,1.43 0.63,2.16 0.17,0.66 0.56,2.27 0.76,3.14 0.21,0.76 0.43,1.53 0.6,2.33 0.38,1.43 0.45,1.71 1.46,3.14 0.98,1.4 2.62,3.21 5.23,3.21 2.03,0 2.06,-1.78 2.06,-2.44 0,-2.09 -1.5,-5.96 -2.06,-7.43 -0.38,-0.97 -0.52,-1.29 -0.52,-1.88 0,-1.85 1.53,-3 3.31,-3 3.49,0 5.03,4.81 5.03,5.33 0,0.46 -0.46,0.46 -0.56,0.46 -0.49,0 -0.53,-0.21 -0.67,-0.59 -0.8,-2.79 -2.3,-4.22 -3.69,-4.22 -0.73,0 -0.87,0.49 -0.87,1.22 0,0.8 0.17,1.25 0.8,2.82 0.42,1.08 1.84,4.78 1.84,6.73 0,3.39 -2.68,3.98 -4.53,3.98 -2.89,0 -4.84,-1.78 -5.89,-3.18 -0.24,2.41 -2.3,3.18 -3.73,3.18 -1.5,0 -2.3,-1.08 -2.76,-1.88 -0.76,-1.3 -1.25,-3.29 -1.25,-3.46 0,-0.45 0.49,-0.45 0.59,-0.45 0.49,0 0.52,0.11 0.77,1.05 0.52,2.05 1.18,3.76 2.54,3.76 0.91,0 1.16,-0.77 1.16,-1.71 0,-0.66 -0.32,-1.95 -0.56,-2.89 -0.25,-0.94 -0.6,-2.37 -0.77,-3.14 z"
         inkscape:connector-curvature="0"
         style="fill:#000000;stroke-width:0" /><path
         id="path5646"
         d="m 518.91,409.84 0,0.03 0,0.04 0,0.03 0,0.03 0,0.03 0,0.03 0,0.03 0,0.03 0,0.02 0,0.03 -0.01,0.02 0,0.03 0,0.02 0,0.02 -0.01,0.02 0,0.02 0,0.02 -0.01,0.02 -0.01,0.03 -0.01,0.04 -0.01,0.02 -0.02,0.03 -0.02,0.02 -0.01,0.02 -0.03,0.02 -0.02,0.02 -0.03,0.01 -0.03,0.02 -0.03,0.01 -0.03,0.01 -0.04,0 -0.02,0.01 -0.02,0 -0.02,0 -0.03,0 -0.02,0.01 -0.02,0 -0.03,0 -0.03,0 -0.02,0 -0.03,0 -0.03,0 -0.03,0 -0.03,0.01 -0.03,0 -0.03,0 -0.04,0 -0.03,0 -0.04,0 -0.04,0 -0.03,0 c -1.77,-1.6 -4.54,-1.6 -5.04,-1.6 l -0.42,0 0,-1.09 0.42,0 c 0.58,0 2.2,0.07 3.64,0.69 l 0,-12.45 c 0,-0.77 0,-1.04 -2.64,-1.04 l -1.25,0 0,-1.1 10.07,0 0,1.1 -1.25,0 c -2.64,0 -2.64,0.27 -2.64,1.04 z"
         inkscape:connector-curvature="0"
         style="fill:#000000;stroke-width:0" /></g>  </g>
  <g
     transform="translate(41.427547,-20.370514)"
     id="g6020">
    <g
       style="font-style:normal;font-variant:normal;font-weight:normal;font-stretch:normal;letter-spacing:normal;word-spacing:normal;text-anchor:start;fill:none;fill-opacity:1;fill-rule:evenodd;stroke:#000000;stroke-linecap:butt;stroke-linejoin:miter;stroke-miterlimit:10.43299961;stroke-dasharray:none;stroke-dashoffset:0;stroke-opacity:1"
       id="g6022"
       transform="matrix(0.67568305,0,0,-0.67568305,-118.24453,371.10557)"
       xml:space="preserve"
       stroke-miterlimit="10.433"
       font-style="normal"
       font-variant="normal"
       font-weight="normal"
       font-stretch="normal"
       font-size-adjust="none"
       letter-spacing="normal"
       word-spacing="normal"><path
         style="fill:#000000;stroke-width:0"
         inkscape:connector-curvature="0"
         d="m 470.3,440.02 0,0.01 0,0 0,0.01 0,0.01 0,0.01 -0.01,0.01 0,0.02 0,0.02 0,0.02 -0.01,0.02 0,0.02 -0.01,0.02 -0.01,0.03 -0.01,0.02 -0.01,0.03 -0.01,0.02 -0.01,0.02 -0.02,0.03 -0.02,0.02 -0.02,0.03 -0.02,0.02 -0.01,0.01 -0.02,0.01 -0.01,0.01 -0.01,0.01 -0.02,0.01 -0.01,0.01 -0.02,0.01 -0.02,0.01 -0.01,0.01 -0.02,0.01 -0.02,0.01 -0.02,0 -0.02,0.01 -0.02,0.01 -0.02,0 -0.03,0.01 -0.02,0 -0.03,0.01 -0.02,0 -0.03,0 -0.02,0.01 -0.03,0 -0.03,0 -0.03,0 c -1.15,0 -4.78,-0.4 -6.08,-0.5 -0.4,-0.05 -0.95,-0.1 -0.95,-1 0,-0.59 0.45,-0.59 1.2,-0.59 2.39,0 2.49,-0.35 2.49,-0.85 l -0.15,-0.99 -7.22,-28.7 c -0.2,-0.69 -0.2,-0.8 -0.2,-1.09 0,-1.15 0.99,-1.4 1.44,-1.4 0.8,0 1.6,0.6 1.85,1.3 l 0.94,3.78 1.1,4.49 c 0.3,1.09 0.6,2.19 0.85,3.34 0.1,0.29 0.49,1.94 0.54,2.23 0.15,0.45 1.7,3.24 3.39,4.59 1.1,0.8 2.64,1.74 4.78,1.74 2.15,0 2.69,-1.69 2.69,-3.49 0,-2.68 -1.89,-8.11 -3.09,-11.15 -0.39,-1.15 -0.64,-1.75 -0.64,-2.74 0,-2.34 1.74,-4.09 4.08,-4.09 4.69,0 6.53,7.28 6.53,7.67 0,0.5 -0.45,0.5 -0.6,0.5 -0.5,0 -0.5,-0.15 -0.75,-0.89 -0.74,-2.64 -2.34,-6.18 -5.08,-6.18 -0.84,0 -1.19,0.5 -1.19,1.64 0,1.25 0.44,2.44 0.89,3.54 0.8,2.14 3.04,8.07 3.04,10.96 0,3.24 -1.99,5.33 -5.72,5.33 -3.15,0 -5.54,-1.55 -7.38,-3.84 z"
         id="path6024" /><path
         style="fill:#000000;stroke-width:0"
         inkscape:connector-curvature="0"
         d="m 495.68,421.18 0,0.04 0,0.04 0,0.04 0,0.04 0,0.04 0,0.04 0,0.03 0,0.04 -0.01,0.03 0,0.03 0,0.04 0,0.03 -0.01,0.02 0,0.03 0,0.03 -0.01,0.03 0,0.02 0,0.02 -0.02,0.05 -0.01,0.04 -0.01,0.04 -0.02,0.03 -0.02,0.03 -0.02,0.03 -0.03,0.03 -0.02,0.02 -0.03,0.02 -0.04,0.02 -0.03,0.01 -0.04,0.01 -0.05,0.02 -0.05,0 -0.02,0.01 -0.03,0 -0.03,0.01 -0.02,0 -0.03,0 -0.03,0 -0.04,0 -0.03,0.01 -0.03,0 -0.04,0 -0.03,0 -0.04,0 -0.04,0 -0.04,0 -0.04,0 -0.04,0 -0.05,0 -0.04,0 c -2.24,-2.19 -5.41,-2.23 -6.84,-2.23 l 0,-1.25 c 0.84,0 3.14,0 5.06,0.97 l 0,-17.78 c 0,-1.15 0,-1.61 -3.49,-1.61 l -1.33,0 0,-1.25 12.45,0 0,1.25 -1.32,0 c -3.49,0 -3.49,0.46 -3.49,1.61 z"
         id="path6026" /></g>  </g>
  <g
     id="g6408"
     transform="translate(41.049164,59.129488)">
    <g
       word-spacing="normal"
       letter-spacing="normal"
       font-size-adjust="none"
       font-stretch="normal"
       font-weight="normal"
       font-variant="normal"
       font-style="normal"
       stroke-miterlimit="10.433"
       xml:space="preserve"
       transform="matrix(0.67568305,0,0,-0.67568305,-118.24453,371.10557)"
       id="g6410"
       style="font-style:normal;font-variant:normal;font-weight:normal;font-stretch:normal;letter-spacing:normal;word-spacing:normal;text-anchor:start;fill:none;fill-opacity:1;fill-rule:evenodd;stroke:#000000;stroke-linecap:butt;stroke-linejoin:miter;stroke-miterlimit:10.43299961;stroke-dasharray:none;stroke-dashoffset:0;stroke-opacity:1"><path
         id="path6412"
         d="m 470.3,440.02 0,0.01 0,0 0,0.01 0,0.01 0,0.01 -0.01,0.01 0,0.02 0,0.02 0,0.02 -0.01,0.02 0,0.02 -0.01,0.02 -0.01,0.03 -0.01,0.02 -0.01,0.03 -0.01,0.02 -0.01,0.02 -0.02,0.03 -0.02,0.02 -0.02,0.03 -0.02,0.02 -0.01,0.01 -0.02,0.01 -0.01,0.01 -0.01,0.01 -0.02,0.01 -0.01,0.01 -0.02,0.01 -0.02,0.01 -0.01,0.01 -0.02,0.01 -0.02,0.01 -0.02,0 -0.02,0.01 -0.02,0.01 -0.02,0 -0.03,0.01 -0.02,0 -0.03,0.01 -0.02,0 -0.03,0 -0.02,0.01 -0.03,0 -0.03,0 -0.03,0 c -1.15,0 -4.78,-0.4 -6.08,-0.5 -0.4,-0.05 -0.95,-0.1 -0.95,-1 0,-0.59 0.45,-0.59 1.2,-0.59 2.39,0 2.49,-0.35 2.49,-0.85 l -0.15,-0.99 -7.22,-28.7 c -0.2,-0.69 -0.2,-0.8 -0.2,-1.09 0,-1.15 0.99,-1.4 1.44,-1.4 0.8,0 1.6,0.6 1.85,1.3 l 0.94,3.78 1.1,4.49 c 0.3,1.09 0.6,2.19 0.85,3.34 0.1,0.29 0.49,1.94 0.54,2.23 0.15,0.45 1.7,3.24 3.39,4.59 1.1,0.8 2.64,1.74 4.78,1.74 2.15,0 2.69,-1.69 2.69,-3.49 0,-2.68 -1.89,-8.11 -3.09,-11.15 -0.39,-1.15 -0.64,-1.75 -0.64,-2.74 0,-2.34 1.74,-4.09 4.08,-4.09 4.69,0 6.53,7.28 6.53,7.67 0,0.5 -0.45,0.5 -0.6,0.5 -0.5,0 -0.5,-0.15 -0.75,-0.89 -0.74,-2.64 -2.34,-6.18 -5.08,-6.18 -0.84,0 -1.19,0.5 -1.19,1.64 0,1.25 0.44,2.44 0.89,3.54 0.8,2.14 3.04,8.07 3.04,10.96 0,3.24 -1.99,5.33 -5.72,5.33 -3.15,0 -5.54,-1.55 -7.38,-3.84 z"
         inkscape:connector-curvature="0"
         style="fill:#000000;stroke-width:0" /><path
         id="path6414"
         d="m 501.61,405.35 -1.19,0 c -0.1,-0.77 -0.45,-2.83 -0.9,-3.18 -0.28,-0.21 -2.97,-0.21 -3.45,-0.21 l -6.42,0 c 3.66,3.25 4.88,4.22 6.97,5.86 2.58,2.06 4.99,4.22 4.99,7.54 0,4.21 -3.7,6.79 -8.16,6.79 -4.33,0 -7.25,-3.03 -7.25,-6.24 0,-1.78 1.5,-1.95 1.84,-1.95 0.84,0 1.85,0.59 1.85,1.85 0,0.62 -0.24,1.85 -2.05,1.85 1.08,2.47 3.45,3.24 5.09,3.24 3.48,0 5.3,-2.72 5.3,-5.54 0,-3.04 -2.16,-5.45 -3.28,-6.7 l -8.4,-8.3 c -0.35,-0.31 -0.35,-0.38 -0.35,-1.36 l 14.36,0 z"
         inkscape:connector-curvature="0"
         style="fill:#000000;stroke-width:0" /></g>  </g>
  <g
     transform="translate(40.944434,138.39301)"
     id="g6804">
    <g
       style="font-style:normal;font-variant:normal;font-weight:normal;font-stretch:normal;letter-spacing:normal;word-spacing:normal;text-anchor:start;fill:none;fill-opacity:1;fill-rule:evenodd;stroke:#000000;stroke-linecap:butt;stroke-linejoin:miter;stroke-miterlimit:10.43299961;stroke-dasharray:none;stroke-dashoffset:0;stroke-opacity:1"
       id="g6806"
       transform="matrix(0.67568305,0,0,-0.67568305,-118.24453,371.10557)"
       xml:space="preserve"
       stroke-miterlimit="10.433"
       font-style="normal"
       font-variant="normal"
       font-weight="normal"
       font-stretch="normal"
       font-size-adjust="none"
       letter-spacing="normal"
       word-spacing="normal"><path
         style="fill:#000000;stroke-width:0"
         inkscape:connector-curvature="0"
         d="m 470.3,440.02 0,0.01 0,0 0,0.01 0,0.01 0,0.01 -0.01,0.01 0,0.02 0,0.02 0,0.02 -0.01,0.02 0,0.02 -0.01,0.02 -0.01,0.03 -0.01,0.02 -0.01,0.03 -0.01,0.02 -0.01,0.02 -0.02,0.03 -0.02,0.02 -0.02,0.03 -0.02,0.02 -0.01,0.01 -0.02,0.01 -0.01,0.01 -0.01,0.01 -0.02,0.01 -0.01,0.01 -0.02,0.01 -0.02,0.01 -0.01,0.01 -0.02,0.01 -0.02,0.01 -0.02,0 -0.02,0.01 -0.02,0.01 -0.02,0 -0.03,0.01 -0.02,0 -0.03,0.01 -0.02,0 -0.03,0 -0.02,0.01 -0.03,0 -0.03,0 -0.03,0 c -1.15,0 -4.78,-0.4 -6.08,-0.5 -0.4,-0.05 -0.95,-0.1 -0.95,-1 0,-0.59 0.45,-0.59 1.2,-0.59 2.39,0 2.49,-0.35 2.49,-0.85 l -0.15,-0.99 -7.22,-28.7 c -0.2,-0.69 -0.2,-0.8 -0.2,-1.09 0,-1.15 0.99,-1.4 1.44,-1.4 0.8,0 1.6,0.6 1.85,1.3 l 0.94,3.78 1.1,4.49 c 0.3,1.09 0.6,2.19 0.85,3.34 0.1,0.29 0.49,1.94 0.54,2.23 0.15,0.45 1.7,3.24 3.39,4.59 1.1,0.8 2.64,1.74 4.78,1.74 2.15,0 2.69,-1.69 2.69,-3.49 0,-2.68 -1.89,-8.11 -3.09,-11.15 -0.39,-1.15 -0.64,-1.75 -0.64,-2.74 0,-2.34 1.74,-4.09 4.08,-4.09 4.69,0 6.53,7.28 6.53,7.67 0,0.5 -0.45,0.5 -0.6,0.5 -0.5,0 -0.5,-0.15 -0.75,-0.89 -0.74,-2.64 -2.34,-6.18 -5.08,-6.18 -0.84,0 -1.19,0.5 -1.19,1.64 0,1.25 0.44,2.44 0.89,3.54 0.8,2.14 3.04,8.07 3.04,10.96 0,3.24 -1.99,5.33 -5.72,5.33 -3.15,0 -5.54,-1.55 -7.38,-3.84 z"
         id="path6808" /><path
         style="fill:#000000;stroke-width:0"
         inkscape:connector-curvature="0"
         d="m 493.52,410.64 0.25,0 0.25,-0.02 0.24,-0.02 0.24,-0.04 0.23,-0.05 0.23,-0.06 0.22,-0.07 0.22,-0.09 0.21,-0.09 0.2,-0.11 0.19,-0.11 0.19,-0.13 0.18,-0.13 0.18,-0.15 0.17,-0.16 0.15,-0.17 0.16,-0.18 0.14,-0.2 0.13,-0.2 0.13,-0.21 0.12,-0.23 0.11,-0.23 0.09,-0.25 0.09,-0.26 0.08,-0.27 0.07,-0.28 0.06,-0.29 0.05,-0.3 0.04,-0.31 0.03,-0.32 0.02,-0.33 0,-0.35 c 0,-4.32 -2.51,-5.61 -4.53,-5.61 -1.39,0 -4.46,0.38 -5.93,2.44 1.64,0.07 2.02,1.22 2.02,1.95 0,1.12 -0.83,1.92 -1.91,1.92 -0.98,0 -1.96,-0.59 -1.96,-2.02 0,-3.28 3.63,-5.41 7.85,-5.41 4.84,0 8.19,3.25 8.19,6.73 0,2.72 -2.23,5.44 -6.06,6.24 3.66,1.33 4.98,3.94 4.98,6.07 0,2.76 -3.17,4.81 -7.04,4.81 -3.87,0 -6.84,-1.88 -6.84,-4.67 0,-1.18 0.77,-1.85 1.82,-1.85 1.08,0 1.77,0.8 1.77,1.78 0,1.01 -0.69,1.75 -1.77,1.81 1.22,1.54 3.62,1.92 4.92,1.92 1.56,0 3.76,-0.76 3.76,-3.8 0,-1.46 -0.49,-3.07 -1.39,-4.15 -1.16,-1.32 -2.13,-1.39 -3.87,-1.5 -0.88,-0.07 -0.95,-0.07 -1.12,-0.1 -0.07,0 -0.35,-0.07 -0.35,-0.46 0,-0.49 0.31,-0.49 0.91,-0.49 z"
         id="path6810" /></g>  </g>
  <g
     id="g7208"
     transform="translate(239.04925,24.622201)">
    <g
       word-spacing="normal"
       letter-spacing="normal"
       font-size-adjust="none"
       font-stretch="normal"
       font-weight="normal"
       font-variant="normal"
       font-style="normal"
       stroke-miterlimit="10.433"
       xml:space="preserve"
       transform="matrix(0.67568305,0,0,-0.67568305,-118.24453,371.10557)"
       id="g7210"
       style="font-style:normal;font-variant:normal;font-weight:normal;font-stretch:normal;letter-spacing:normal;word-spacing:normal;text-anchor:start;fill:none;fill-opacity:1;fill-rule:evenodd;stroke:#000000;stroke-linecap:butt;stroke-linejoin:miter;stroke-miterlimit:10.43299961;stroke-dasharray:none;stroke-dashoffset:0;stroke-opacity:1"><path
         id="path7212"
         d="m 480.21,424.98 0.01,0.03 0.01,0.03 0.01,0.03 0.01,0.03 0.01,0.06 0.02,0.05 0.01,0.06 0.01,0.04 0.02,0.05 0.01,0.04 0.01,0.04 0.01,0.04 0,0.04 0.01,0.04 0.01,0.03 0,0.03 0.01,0.03 0.01,0.03 0,0.03 0,0.03 0.01,0.03 0,0.02 0,0.06 0.01,0.05 0,0.05 0,0.05 0,0.03 0,0.03 0,0.03 0,0.03 c 0,0.9 -0.7,1.35 -1.45,1.35 -0.5,0 -1.29,-0.3 -1.74,-1.05 -0.1,-0.24 -0.5,-1.79 -0.7,-2.69 -0.34,-1.29 -0.7,-2.64 -0.99,-3.98 l -2.24,-8.97 c -0.2,-0.74 -2.34,-4.23 -5.63,-4.23 -2.54,0 -3.09,2.19 -3.09,4.03 0,2.3 0.84,5.38 2.54,9.77 0.8,2.04 1,2.59 1,3.58 0,2.25 -1.6,4.09 -4.09,4.09 -4.73,0 -6.57,-7.23 -6.57,-7.67 0,-0.5 0.49,-0.5 0.59,-0.5 0.5,0 0.55,0.1 0.8,0.9 1.34,4.68 3.34,6.17 5.03,6.17 0.4,0 1.25,0 1.25,-1.59 0,-1.25 -0.5,-2.54 -0.85,-3.49 -1.99,-5.28 -2.89,-8.12 -2.89,-10.46 0,-4.43 3.14,-5.93 6.08,-5.93 1.94,0 3.63,0.85 5.03,2.25 -0.65,-2.6 -1.25,-5.04 -3.24,-7.68 -1.29,-1.69 -3.19,-3.14 -5.48,-3.14 -0.7,0 -2.94,0.16 -3.79,2.1 0.8,0 1.45,0 2.15,0.59 0.49,0.45 0.99,1.1 0.99,2.05 0,1.54 -1.34,1.74 -1.84,1.74 -1.15,0 -2.79,-0.8 -2.79,-3.24 0,-2.49 2.19,-4.33 5.28,-4.33 5.13,0 10.26,4.53 11.66,10.16 z"
         inkscape:connector-curvature="0"
         style="fill:#000000;stroke-width:0" /><path
         id="path7214"
         d="m 491.68,421.18 0,0.04 0,0.04 0,0.04 0,0.04 0,0.04 0,0.04 0,0.03 0,0.04 -0.01,0.03 0,0.03 0,0.04 0,0.03 -0.01,0.02 0,0.03 0,0.03 -0.01,0.03 0,0.02 0,0.02 -0.02,0.05 -0.01,0.04 -0.01,0.04 -0.02,0.03 -0.02,0.03 -0.02,0.03 -0.03,0.03 -0.02,0.02 -0.03,0.02 -0.04,0.02 -0.03,0.01 -0.04,0.01 -0.05,0.02 -0.05,0 -0.02,0.01 -0.03,0 -0.03,0.01 -0.02,0 -0.03,0 -0.03,0 -0.04,0 -0.03,0.01 -0.03,0 -0.04,0 -0.03,0 -0.04,0 -0.04,0 -0.04,0 -0.04,0 -0.04,0 -0.05,0 -0.04,0 c -2.24,-2.19 -5.41,-2.23 -6.84,-2.23 l 0,-1.25 c 0.84,0 3.14,0 5.06,0.97 l 0,-17.78 c 0,-1.15 0,-1.61 -3.49,-1.61 l -1.33,0 0,-1.25 12.45,0 0,1.25 -1.32,0 c -3.49,0 -3.49,0.46 -3.49,1.61 z"
         inkscape:connector-curvature="0"
         style="fill:#000000;stroke-width:0" /></g>  </g>
  <g
     transform="translate(238.67087,93.955571)"
     id="g7620">
    <g
       style="font-style:normal;font-variant:normal;font-weight:normal;font-stretch:normal;letter-spacing:normal;word-spacing:normal;text-anchor:start;fill:none;fill-opacity:1;fill-rule:evenodd;stroke:#000000;stroke-linecap:butt;stroke-linejoin:miter;stroke-miterlimit:10.43299961;stroke-dasharray:none;stroke-dashoffset:0;stroke-opacity:1"
       id="g7622"
       transform="matrix(0.67568305,0,0,-0.67568305,-118.24453,371.10557)"
       xml:space="preserve"
       stroke-miterlimit="10.433"
       font-style="normal"
       font-variant="normal"
       font-weight="normal"
       font-stretch="normal"
       font-size-adjust="none"
       letter-spacing="normal"
       word-spacing="normal"><path
         style="fill:#000000;stroke-width:0"
         inkscape:connector-curvature="0"
         d="m 480.21,424.98 0.01,0.03 0.01,0.03 0.01,0.03 0.01,0.03 0.01,0.06 0.02,0.05 0.01,0.06 0.01,0.04 0.02,0.05 0.01,0.04 0.01,0.04 0.01,0.04 0,0.04 0.01,0.04 0.01,0.03 0,0.03 0.01,0.03 0.01,0.03 0,0.03 0,0.03 0.01,0.03 0,0.02 0,0.06 0.01,0.05 0,0.05 0,0.05 0,0.03 0,0.03 0,0.03 0,0.03 c 0,0.9 -0.7,1.35 -1.45,1.35 -0.5,0 -1.29,-0.3 -1.74,-1.05 -0.1,-0.24 -0.5,-1.79 -0.7,-2.69 -0.34,-1.29 -0.7,-2.64 -0.99,-3.98 l -2.24,-8.97 c -0.2,-0.74 -2.34,-4.23 -5.63,-4.23 -2.54,0 -3.09,2.19 -3.09,4.03 0,2.3 0.84,5.38 2.54,9.77 0.8,2.04 1,2.59 1,3.58 0,2.25 -1.6,4.09 -4.09,4.09 -4.73,0 -6.57,-7.23 -6.57,-7.67 0,-0.5 0.49,-0.5 0.59,-0.5 0.5,0 0.55,0.1 0.8,0.9 1.34,4.68 3.34,6.17 5.03,6.17 0.4,0 1.25,0 1.25,-1.59 0,-1.25 -0.5,-2.54 -0.85,-3.49 -1.99,-5.28 -2.89,-8.12 -2.89,-10.46 0,-4.43 3.14,-5.93 6.08,-5.93 1.94,0 3.63,0.85 5.03,2.25 -0.65,-2.6 -1.25,-5.04 -3.24,-7.68 -1.29,-1.69 -3.19,-3.14 -5.48,-3.14 -0.7,0 -2.94,0.16 -3.79,2.1 0.8,0 1.45,0 2.15,0.59 0.49,0.45 0.99,1.1 0.99,2.05 0,1.54 -1.34,1.74 -1.84,1.74 -1.15,0 -2.79,-0.8 -2.79,-3.24 0,-2.49 2.19,-4.33 5.28,-4.33 5.13,0 10.26,4.53 11.66,10.16 z"
         id="path7624" /><path
         style="fill:#000000;stroke-width:0"
         inkscape:connector-curvature="0"
         d="m 497.61,405.35 -1.19,0 c -0.1,-0.77 -0.45,-2.83 -0.9,-3.18 -0.28,-0.21 -2.97,-0.21 -3.45,-0.21 l -6.42,0 c 3.66,3.25 4.88,4.22 6.97,5.86 2.58,2.06 4.99,4.22 4.99,7.54 0,4.21 -3.7,6.79 -8.16,6.79 -4.33,0 -7.25,-3.03 -7.25,-6.24 0,-1.78 1.5,-1.95 1.84,-1.95 0.84,0 1.85,0.59 1.85,1.85 0,0.62 -0.24,1.85 -2.05,1.85 1.08,2.47 3.45,3.24 5.09,3.24 3.48,0 5.3,-2.72 5.3,-5.54 0,-3.04 -2.16,-5.45 -3.28,-6.7 l -8.4,-8.3 c -0.35,-0.31 -0.35,-0.38 -0.35,-1.36 l 14.36,0 z"
         id="path7626" /></g>  </g>
  <g
     id="g8040"
     transform="translate(231.21809,232.01749)">
    <g
       word-spacing="normal"
       letter-spacing="normal"
       font-size-adjust="none"
       font-stretch="normal"
       font-weight="normal"
       font-variant="normal"
       font-style="normal"
       stroke-miterlimit="10.433"
       xml:space="preserve"
       transform="matrix(0.67568305,0,0,-0.67568305,-118.24453,371.10557)"
       id="g8042"
       style="font-style:normal;font-variant:normal;font-weight:normal;font-stretch:normal;letter-spacing:normal;word-spacing:normal;text-anchor:start;fill:none;fill-opacity:1;fill-rule:evenodd;stroke:#000000;stroke-linecap:butt;stroke-linejoin:miter;stroke-miterlimit:10.43299961;stroke-dasharray:none;stroke-dashoffset:0;stroke-opacity:1"><path
         id="path8044"
         d="m 480.21,424.98 0.01,0.03 0.01,0.03 0.01,0.03 0.01,0.03 0.01,0.06 0.02,0.05 0.01,0.06 0.01,0.04 0.02,0.05 0.01,0.04 0.01,0.04 0.01,0.04 0,0.04 0.01,0.04 0.01,0.03 0,0.03 0.01,0.03 0.01,0.03 0,0.03 0,0.03 0.01,0.03 0,0.02 0,0.06 0.01,0.05 0,0.05 0,0.05 0,0.03 0,0.03 0,0.03 0,0.03 c 0,0.9 -0.7,1.35 -1.45,1.35 -0.5,0 -1.29,-0.3 -1.74,-1.05 -0.1,-0.24 -0.5,-1.79 -0.7,-2.69 -0.34,-1.29 -0.7,-2.64 -0.99,-3.98 l -2.24,-8.97 c -0.2,-0.74 -2.34,-4.23 -5.63,-4.23 -2.54,0 -3.09,2.19 -3.09,4.03 0,2.3 0.84,5.38 2.54,9.77 0.8,2.04 1,2.59 1,3.58 0,2.25 -1.6,4.09 -4.09,4.09 -4.73,0 -6.57,-7.23 -6.57,-7.67 0,-0.5 0.49,-0.5 0.59,-0.5 0.5,0 0.55,0.1 0.8,0.9 1.34,4.68 3.34,6.17 5.03,6.17 0.4,0 1.25,0 1.25,-1.59 0,-1.25 -0.5,-2.54 -0.85,-3.49 -1.99,-5.28 -2.89,-8.12 -2.89,-10.46 0,-4.43 3.14,-5.93 6.08,-5.93 1.94,0 3.63,0.85 5.03,2.25 -0.65,-2.6 -1.25,-5.04 -3.24,-7.68 -1.29,-1.69 -3.19,-3.14 -5.48,-3.14 -0.7,0 -2.94,0.16 -3.79,2.1 0.8,0 1.45,0 2.15,0.59 0.49,0.45 0.99,1.1 0.99,2.05 0,1.54 -1.34,1.74 -1.84,1.74 -1.15,0 -2.79,-0.8 -2.79,-3.24 0,-2.49 2.19,-4.33 5.28,-4.33 5.13,0 10.26,4.53 11.66,10.16 z"
         inkscape:connector-curvature="0"
         style="fill:#000000;stroke-width:0" /><path
         id="path8046"
         d="m 484.25,401.2 -0.01,-0.05 -0.01,-0.04 -0.02,-0.05 -0.01,-0.05 -0.02,-0.05 -0.01,-0.06 -0.02,-0.05 -0.01,-0.05 -0.03,-0.12 -0.03,-0.11 -0.03,-0.11 -0.02,-0.11 -0.02,-0.05 -0.01,-0.06 -0.01,-0.05 -0.01,-0.05 -0.01,-0.04 -0.01,-0.05 -0.01,-0.04 -0.01,-0.04 -0.01,-0.04 0,-0.03 -0.01,-0.03 0,-0.03 -0.01,-0.03 0,-0.02 0,0 0,-0.01 0,-0.01 0,0 c 0,-0.77 0.62,-1.12 1.18,-1.12 0.63,0 1.19,0.46 1.36,0.77 0.17,0.31 0.45,1.43 0.63,2.16 0.17,0.66 0.56,2.27 0.76,3.14 0.21,0.76 0.43,1.53 0.6,2.33 0.38,1.43 0.45,1.71 1.46,3.14 0.98,1.4 2.62,3.21 5.23,3.21 2.03,0 2.06,-1.78 2.06,-2.44 0,-2.09 -1.5,-5.96 -2.06,-7.43 -0.38,-0.97 -0.52,-1.29 -0.52,-1.88 0,-1.85 1.53,-3 3.31,-3 3.49,0 5.03,4.81 5.03,5.33 0,0.46 -0.46,0.46 -0.56,0.46 -0.49,0 -0.53,-0.21 -0.67,-0.59 -0.8,-2.79 -2.3,-4.22 -3.69,-4.22 -0.73,0 -0.87,0.49 -0.87,1.22 0,0.8 0.17,1.25 0.8,2.82 0.42,1.08 1.84,4.78 1.84,6.73 0,3.39 -2.68,3.98 -4.53,3.98 -2.89,0 -4.84,-1.78 -5.89,-3.18 -0.24,2.41 -2.3,3.18 -3.73,3.18 -1.5,0 -2.3,-1.08 -2.76,-1.88 -0.76,-1.3 -1.25,-3.29 -1.25,-3.46 0,-0.45 0.49,-0.45 0.59,-0.45 0.49,0 0.52,0.11 0.77,1.05 0.52,2.05 1.18,3.76 2.54,3.76 0.91,0 1.16,-0.77 1.16,-1.71 0,-0.66 -0.32,-1.95 -0.56,-2.89 -0.25,-0.94 -0.6,-2.37 -0.77,-3.14 z"
         inkscape:connector-curvature="0"
         style="fill:#000000;stroke-width:0" /><path
         id="path8048"
         d="m 519.67,398.81 -1.05,0 c -0.07,-0.48 -0.32,-2.02 -0.72,-2.27 -0.2,-0.15 -2.29,-0.15 -2.66,-0.15 l -4.88,0 c 1.64,1.22 3.48,2.62 4.98,3.61 2.24,1.55 4.33,2.99 4.33,5.63 0,3.19 -3.01,4.96 -6.58,4.96 -3.36,0 -5.82,-1.95 -5.82,-4.39 0,-1.29 1.09,-1.52 1.44,-1.52 0.67,0 1.47,0.45 1.47,1.48 0,0.89 -0.65,1.39 -1.42,1.46 0.7,1.13 2.14,1.87 3.81,1.87 2.42,0 4.43,-1.44 4.43,-3.88 0,-2.09 -1.44,-3.69 -3.35,-5.31 l -6.08,-5.16 c -0.25,-0.22 -0.28,-0.22 -0.3,-0.39 l 0,-0.75 11.58,0 z"
         inkscape:connector-curvature="0"
         style="fill:#000000;stroke-width:0" /></g>  </g>
</svg>
